<mxfile host="app.diagrams.net" modified="2023-11-09T13:37:13.804Z" agent="Mozilla/5.0 (Windows NT 10.0; Win64; x64) AppleWebKit/537.36 (KHTML, like Gecko) Chrome/119.0.0.0 Safari/537.36 Edg/119.0.0.0" etag="BWYI0x9ImhMUkqH8VgIz" version="22.1.0" type="github">
  <diagram name="Page-1" id="wuofGZKgwK-js_nQWKqF">
    <mxGraphModel dx="1332" dy="728" grid="1" gridSize="10" guides="1" tooltips="1" connect="1" arrows="1" fold="1" page="1" pageScale="1" pageWidth="827" pageHeight="1169" math="0" shadow="0">
      <root>
        <mxCell id="0" />
        <mxCell id="1" parent="0" />
        <mxCell id="CHzbfjj1ZIRkGf9tCg_J-218" value="" style="whiteSpace=wrap;html=1;aspect=fixed;fillColor=#dae8fc;strokeColor=#6c8ebf;container=0;movable=1;resizable=1;rotatable=1;deletable=1;editable=1;locked=0;connectable=1;" vertex="1" parent="1">
          <mxGeometry x="753.7" y="525" width="160" height="160" as="geometry" />
        </mxCell>
        <mxCell id="CHzbfjj1ZIRkGf9tCg_J-69" value="" style="rounded=0;whiteSpace=wrap;html=1;movable=1;resizable=1;rotatable=1;deletable=1;editable=1;locked=0;connectable=1;strokeColor=none;fillColor=none;" vertex="1" parent="1">
          <mxGeometry x="410" y="270" width="850" height="540" as="geometry" />
        </mxCell>
        <mxCell id="CHzbfjj1ZIRkGf9tCg_J-215" value="" style="rounded=0;whiteSpace=wrap;html=1;movable=0;resizable=0;rotatable=0;deletable=0;editable=0;locked=1;connectable=0;strokeColor=none;fillColor=none;" vertex="1" parent="1">
          <mxGeometry x="420" y="280" width="850" height="540" as="geometry" />
        </mxCell>
        <mxCell id="CHzbfjj1ZIRkGf9tCg_J-193" value="" style="whiteSpace=wrap;html=1;fillColor=#bac8d3;strokeColor=#23445d;" vertex="1" parent="1">
          <mxGeometry x="970" y="370" width="200" height="430" as="geometry" />
        </mxCell>
        <mxCell id="CHzbfjj1ZIRkGf9tCg_J-198" value="" style="whiteSpace=wrap;html=1;aspect=fixed;fillColor=#dae8fc;strokeColor=#6c8ebf;container=0;movable=1;resizable=1;rotatable=1;deletable=1;editable=1;locked=0;connectable=1;" vertex="1" parent="1">
          <mxGeometry x="990" y="620" width="160" height="160" as="geometry" />
        </mxCell>
        <mxCell id="CHzbfjj1ZIRkGf9tCg_J-10" value="Custom Workers" style="text;html=1;strokeColor=none;fillColor=none;align=center;verticalAlign=middle;whiteSpace=wrap;rounded=0;fontStyle=1;fontColor=#000000;fontSize=30;fontFamily=Comic Sans MS;labelPosition=center;verticalLabelPosition=middle;" vertex="1" parent="1">
          <mxGeometry x="575" y="290" width="520" height="70" as="geometry" />
        </mxCell>
        <mxCell id="CHzbfjj1ZIRkGf9tCg_J-171" value="" style="group" vertex="1" connectable="0" parent="1">
          <mxGeometry x="480" y="370" width="200" height="430" as="geometry" />
        </mxCell>
        <mxCell id="CHzbfjj1ZIRkGf9tCg_J-162" value="" style="whiteSpace=wrap;html=1;fillColor=#bac8d3;strokeColor=#23445d;" vertex="1" parent="CHzbfjj1ZIRkGf9tCg_J-171">
          <mxGeometry width="200" height="430" as="geometry" />
        </mxCell>
        <mxCell id="CHzbfjj1ZIRkGf9tCg_J-157" value="" style="group" vertex="1" connectable="0" parent="CHzbfjj1ZIRkGf9tCg_J-171">
          <mxGeometry x="23.69999999999999" y="75" width="162.60869565217388" height="160" as="geometry" />
        </mxCell>
        <mxCell id="CHzbfjj1ZIRkGf9tCg_J-36" value="" style="whiteSpace=wrap;html=1;aspect=fixed;fillColor=#dae8fc;strokeColor=#6c8ebf;container=0;movable=1;resizable=1;rotatable=1;deletable=1;editable=1;locked=0;connectable=1;" vertex="1" parent="CHzbfjj1ZIRkGf9tCg_J-157">
          <mxGeometry width="160" height="160" as="geometry" />
        </mxCell>
        <mxCell id="CHzbfjj1ZIRkGf9tCg_J-37" value="VPS-1" style="text;html=1;strokeColor=none;fillColor=none;align=center;verticalAlign=middle;whiteSpace=wrap;rounded=0;fontSize=19;fontFamily=Comic Sans MS;fontStyle=1;container=0;movable=1;resizable=1;rotatable=1;deletable=1;editable=1;locked=0;connectable=1;" vertex="1" parent="CHzbfjj1ZIRkGf9tCg_J-157">
          <mxGeometry x="7.391304347826065" y="13.913043478260875" width="155.2173913043478" height="20.869565217391305" as="geometry" />
        </mxCell>
        <mxCell id="CHzbfjj1ZIRkGf9tCg_J-154" value="" style="editableCssRules=.*;html=1;shape=image;verticalLabelPosition=bottom;labelBackgroundColor=#ffffff;verticalAlign=top;aspect=fixed;imageAspect=0;image=data:image/svg+xml,PHN2ZyB4bWxucz0iaHR0cDovL3d3dy53My5vcmcvMjAwMC9zdmciIHhtbG5zOnY9Imh0dHBzOi8vdmVjdGEuaW8vbmFubyIgd2lkdGg9IjIwIiBoZWlnaHQ9IjIwIiB2aWV3Qm94PSIwIDAgMjAgMjAiPiYjeGE7CTxzdHlsZSB0eXBlPSJ0ZXh0L2NzcyI+JiN4YTsJLnN0MHtmaWxsOiM0Mjg1ZjQ7fSYjeGE7CS5zdDF7ZmlsbDojNjY5ZGY2O30mI3hhOwkuc3Qye2ZpbGw6I2FlY2JmYTt9JiN4YTsJLnN0M3tmaWxsOiNmZmY7fSYjeGE7CTwvc3R5bGU+JiN4YTsJPHBhdGggY2xhc3M9InN0MCIgZD0iTTkgNmgydjEwSDl6Ii8+JiN4YTsJPHBhdGggY2xhc3M9InN0MSIgZD0iTTIwIDE3SDB2MmgyMHoiLz4mI3hhOwk8cGF0aCBjbGFzcz0ic3QyIiBkPSJNMTIgMTZIOHY0aDR6TTAgMGgyMHY2SDB6Ii8+JiN4YTsJPHBhdGggY2xhc3M9InN0MSIgZD0iTTEwIDBoMTB2NkgxMHoiLz4mI3hhOwk8cGF0aCBjbGFzcz0ic3QzIiBkPSJNMiAyaDJ2MkgyeiIvPiYjeGE7CTxwYXRoIGNsYXNzPSJzdDIiIGQ9Ik0wIDhoMjB2NkgweiIvPiYjeGE7CTxwYXRoIGNsYXNzPSJzdDEiIGQ9Ik0xMCA4aDEwdjZIMTB6Ii8+JiN4YTsJPHBhdGggY2xhc3M9InN0MyIgZD0iTTIgMTBoMnYySDJ6Ii8+JiN4YTs8L3N2Zz4=;" vertex="1" parent="CHzbfjj1ZIRkGf9tCg_J-157">
          <mxGeometry x="47.5" y="65" width="65" height="65" as="geometry" />
        </mxCell>
        <mxCell id="CHzbfjj1ZIRkGf9tCg_J-159" value="" style="whiteSpace=wrap;html=1;aspect=fixed;fillColor=#dae8fc;strokeColor=#6c8ebf;container=0;movable=1;resizable=1;rotatable=1;deletable=1;editable=1;locked=0;connectable=1;" vertex="1" parent="CHzbfjj1ZIRkGf9tCg_J-171">
          <mxGeometry x="20" y="250" width="160" height="160" as="geometry" />
        </mxCell>
        <mxCell id="CHzbfjj1ZIRkGf9tCg_J-161" value="" style="editableCssRules=.*;html=1;shape=image;verticalLabelPosition=bottom;labelBackgroundColor=#ffffff;verticalAlign=top;aspect=fixed;imageAspect=0;image=data:image/svg+xml,PHN2ZyB4bWxucz0iaHR0cDovL3d3dy53My5vcmcvMjAwMC9zdmciIHhtbG5zOnY9Imh0dHBzOi8vdmVjdGEuaW8vbmFubyIgd2lkdGg9IjIwIiBoZWlnaHQ9IjIwIiB2aWV3Qm94PSIwIDAgMjAgMjAiPiYjeGE7CTxzdHlsZSB0eXBlPSJ0ZXh0L2NzcyI+JiN4YTsJLnN0MHtmaWxsOiM0Mjg1ZjQ7fSYjeGE7CS5zdDF7ZmlsbDojNjY5ZGY2O30mI3hhOwkuc3Qye2ZpbGw6I2FlY2JmYTt9JiN4YTsJLnN0M3tmaWxsOiNmZmY7fSYjeGE7CTwvc3R5bGU+JiN4YTsJPHBhdGggY2xhc3M9InN0MCIgZD0iTTkgNmgydjEwSDl6Ii8+JiN4YTsJPHBhdGggY2xhc3M9InN0MSIgZD0iTTIwIDE3SDB2MmgyMHoiLz4mI3hhOwk8cGF0aCBjbGFzcz0ic3QyIiBkPSJNMTIgMTZIOHY0aDR6TTAgMGgyMHY2SDB6Ii8+JiN4YTsJPHBhdGggY2xhc3M9InN0MSIgZD0iTTEwIDBoMTB2NkgxMHoiLz4mI3hhOwk8cGF0aCBjbGFzcz0ic3QzIiBkPSJNMiAyaDJ2MkgyeiIvPiYjeGE7CTxwYXRoIGNsYXNzPSJzdDIiIGQ9Ik0wIDhoMjB2NkgweiIvPiYjeGE7CTxwYXRoIGNsYXNzPSJzdDEiIGQ9Ik0xMCA4aDEwdjZIMTB6Ii8+JiN4YTsJPHBhdGggY2xhc3M9InN0MyIgZD0iTTIgMTBoMnYySDJ6Ii8+JiN4YTs8L3N2Zz4=;" vertex="1" parent="CHzbfjj1ZIRkGf9tCg_J-171">
          <mxGeometry x="67.5" y="315" width="65" height="65" as="geometry" />
        </mxCell>
        <mxCell id="CHzbfjj1ZIRkGf9tCg_J-160" value="VPS-2" style="text;html=1;strokeColor=none;fillColor=none;align=center;verticalAlign=middle;whiteSpace=wrap;rounded=0;fontSize=19;fontFamily=Comic Sans MS;fontStyle=1;container=0;movable=1;resizable=1;rotatable=1;deletable=1;editable=1;locked=0;connectable=1;" vertex="1" parent="CHzbfjj1ZIRkGf9tCg_J-171">
          <mxGeometry x="27.391304347826065" y="263.9130434782609" width="155.2173913043478" height="20.869565217391305" as="geometry" />
        </mxCell>
        <mxCell id="CHzbfjj1ZIRkGf9tCg_J-163" value="DigitalOcean" style="text;html=1;strokeColor=none;fillColor=none;align=center;verticalAlign=middle;whiteSpace=wrap;rounded=0;fontStyle=1;fontSize=20;fontFamily=Comic Sans MS;" vertex="1" parent="CHzbfjj1ZIRkGf9tCg_J-171">
          <mxGeometry x="70" y="20" width="60" height="30" as="geometry" />
        </mxCell>
        <mxCell id="CHzbfjj1ZIRkGf9tCg_J-201" value="AWS" style="text;html=1;strokeColor=none;fillColor=none;align=center;verticalAlign=middle;whiteSpace=wrap;rounded=0;fontStyle=1;fontSize=20;fontFamily=Comic Sans MS;" vertex="1" parent="1">
          <mxGeometry x="1040" y="390" width="60" height="30" as="geometry" />
        </mxCell>
        <mxCell id="CHzbfjj1ZIRkGf9tCg_J-194" value="" style="group" vertex="1" connectable="0" parent="1">
          <mxGeometry x="993.7" y="445" width="162.60869565217388" height="160" as="geometry" />
        </mxCell>
        <mxCell id="CHzbfjj1ZIRkGf9tCg_J-195" value="" style="whiteSpace=wrap;html=1;aspect=fixed;fillColor=#dae8fc;strokeColor=#6c8ebf;container=0;movable=1;resizable=1;rotatable=1;deletable=1;editable=1;locked=0;connectable=1;" vertex="1" parent="CHzbfjj1ZIRkGf9tCg_J-194">
          <mxGeometry width="160" height="160" as="geometry" />
        </mxCell>
        <mxCell id="CHzbfjj1ZIRkGf9tCg_J-196" value="VPS-3" style="text;html=1;strokeColor=none;fillColor=none;align=center;verticalAlign=middle;whiteSpace=wrap;rounded=0;fontSize=19;fontFamily=Comic Sans MS;fontStyle=1;container=0;movable=1;resizable=1;rotatable=1;deletable=1;editable=1;locked=0;connectable=1;" vertex="1" parent="CHzbfjj1ZIRkGf9tCg_J-194">
          <mxGeometry x="7.391304347826065" y="13.913043478260875" width="155.2173913043478" height="20.869565217391305" as="geometry" />
        </mxCell>
        <mxCell id="CHzbfjj1ZIRkGf9tCg_J-197" value="" style="editableCssRules=.*;html=1;shape=image;verticalLabelPosition=bottom;labelBackgroundColor=#ffffff;verticalAlign=top;aspect=fixed;imageAspect=0;image=data:image/svg+xml,PHN2ZyB4bWxucz0iaHR0cDovL3d3dy53My5vcmcvMjAwMC9zdmciIHhtbG5zOnY9Imh0dHBzOi8vdmVjdGEuaW8vbmFubyIgd2lkdGg9IjIwIiBoZWlnaHQ9IjIwIiB2aWV3Qm94PSIwIDAgMjAgMjAiPiYjeGE7CTxzdHlsZSB0eXBlPSJ0ZXh0L2NzcyI+JiN4YTsJLnN0MHtmaWxsOiM0Mjg1ZjQ7fSYjeGE7CS5zdDF7ZmlsbDojNjY5ZGY2O30mI3hhOwkuc3Qye2ZpbGw6I2FlY2JmYTt9JiN4YTsJLnN0M3tmaWxsOiNmZmY7fSYjeGE7CTwvc3R5bGU+JiN4YTsJPHBhdGggY2xhc3M9InN0MCIgZD0iTTkgNmgydjEwSDl6Ii8+JiN4YTsJPHBhdGggY2xhc3M9InN0MSIgZD0iTTIwIDE3SDB2MmgyMHoiLz4mI3hhOwk8cGF0aCBjbGFzcz0ic3QyIiBkPSJNMTIgMTZIOHY0aDR6TTAgMGgyMHY2SDB6Ii8+JiN4YTsJPHBhdGggY2xhc3M9InN0MSIgZD0iTTEwIDBoMTB2NkgxMHoiLz4mI3hhOwk8cGF0aCBjbGFzcz0ic3QzIiBkPSJNMiAyaDJ2MkgyeiIvPiYjeGE7CTxwYXRoIGNsYXNzPSJzdDIiIGQ9Ik0wIDhoMjB2NkgweiIvPiYjeGE7CTxwYXRoIGNsYXNzPSJzdDEiIGQ9Ik0xMCA4aDEwdjZIMTB6Ii8+JiN4YTsJPHBhdGggY2xhc3M9InN0MyIgZD0iTTIgMTBoMnYySDJ6Ii8+JiN4YTs8L3N2Zz4=;" vertex="1" parent="CHzbfjj1ZIRkGf9tCg_J-194">
          <mxGeometry x="47.5" y="65" width="65" height="65" as="geometry" />
        </mxCell>
        <mxCell id="CHzbfjj1ZIRkGf9tCg_J-199" value="" style="editableCssRules=.*;html=1;shape=image;verticalLabelPosition=bottom;labelBackgroundColor=#ffffff;verticalAlign=top;aspect=fixed;imageAspect=0;image=data:image/svg+xml,PHN2ZyB4bWxucz0iaHR0cDovL3d3dy53My5vcmcvMjAwMC9zdmciIHhtbG5zOnY9Imh0dHBzOi8vdmVjdGEuaW8vbmFubyIgd2lkdGg9IjIwIiBoZWlnaHQ9IjIwIiB2aWV3Qm94PSIwIDAgMjAgMjAiPiYjeGE7CTxzdHlsZSB0eXBlPSJ0ZXh0L2NzcyI+JiN4YTsJLnN0MHtmaWxsOiM0Mjg1ZjQ7fSYjeGE7CS5zdDF7ZmlsbDojNjY5ZGY2O30mI3hhOwkuc3Qye2ZpbGw6I2FlY2JmYTt9JiN4YTsJLnN0M3tmaWxsOiNmZmY7fSYjeGE7CTwvc3R5bGU+JiN4YTsJPHBhdGggY2xhc3M9InN0MCIgZD0iTTkgNmgydjEwSDl6Ii8+JiN4YTsJPHBhdGggY2xhc3M9InN0MSIgZD0iTTIwIDE3SDB2MmgyMHoiLz4mI3hhOwk8cGF0aCBjbGFzcz0ic3QyIiBkPSJNMTIgMTZIOHY0aDR6TTAgMGgyMHY2SDB6Ii8+JiN4YTsJPHBhdGggY2xhc3M9InN0MSIgZD0iTTEwIDBoMTB2NkgxMHoiLz4mI3hhOwk8cGF0aCBjbGFzcz0ic3QzIiBkPSJNMiAyaDJ2MkgyeiIvPiYjeGE7CTxwYXRoIGNsYXNzPSJzdDIiIGQ9Ik0wIDhoMjB2NkgweiIvPiYjeGE7CTxwYXRoIGNsYXNzPSJzdDEiIGQ9Ik0xMCA4aDEwdjZIMTB6Ii8+JiN4YTsJPHBhdGggY2xhc3M9InN0MyIgZD0iTTIgMTBoMnYySDJ6Ii8+JiN4YTs8L3N2Zz4=;" vertex="1" parent="1">
          <mxGeometry x="1037.5" y="685" width="65" height="65" as="geometry" />
        </mxCell>
        <mxCell id="CHzbfjj1ZIRkGf9tCg_J-200" value="VPS-4" style="text;html=1;strokeColor=none;fillColor=none;align=center;verticalAlign=middle;whiteSpace=wrap;rounded=0;fontSize=19;fontFamily=Comic Sans MS;fontStyle=1;container=0;movable=1;resizable=1;rotatable=1;deletable=1;editable=1;locked=0;connectable=1;" vertex="1" parent="1">
          <mxGeometry x="997.391304347826" y="633.9130434782609" width="155.2173913043478" height="20.869565217391305" as="geometry" />
        </mxCell>
        <mxCell id="CHzbfjj1ZIRkGf9tCg_J-212" value="" style="shape=flexArrow;endArrow=classic;html=1;rounded=0;fillColor=#7EA6E0;strokeColor=none;exitX=1;exitY=0.5;exitDx=0;exitDy=0;entryX=0;entryY=0;entryDx=0;entryDy=0;" edge="1" parent="1" source="CHzbfjj1ZIRkGf9tCg_J-36" target="CHzbfjj1ZIRkGf9tCg_J-220">
          <mxGeometry width="50" height="50" relative="1" as="geometry">
            <mxPoint x="657" y="620" as="sourcePoint" />
            <mxPoint x="827" y="570" as="targetPoint" />
          </mxGeometry>
        </mxCell>
        <mxCell id="CHzbfjj1ZIRkGf9tCg_J-153" value="" style="shape=flexArrow;endArrow=classic;html=1;rounded=0;fillColor=#7EA6E0;strokeColor=none;exitX=1;exitY=0.5;exitDx=0;exitDy=0;" edge="1" parent="1" source="CHzbfjj1ZIRkGf9tCg_J-159">
          <mxGeometry width="50" height="50" relative="1" as="geometry">
            <mxPoint x="720" y="751.29" as="sourcePoint" />
            <mxPoint x="780" y="660" as="targetPoint" />
          </mxGeometry>
        </mxCell>
        <mxCell id="CHzbfjj1ZIRkGf9tCg_J-213" value="" style="shape=flexArrow;endArrow=classic;html=1;rounded=0;fillColor=#7EA6E0;strokeColor=none;exitX=0;exitY=0.5;exitDx=0;exitDy=0;" edge="1" parent="1" source="CHzbfjj1ZIRkGf9tCg_J-195">
          <mxGeometry width="50" height="50" relative="1" as="geometry">
            <mxPoint x="674" y="535" as="sourcePoint" />
            <mxPoint x="900" y="550" as="targetPoint" />
          </mxGeometry>
        </mxCell>
        <mxCell id="CHzbfjj1ZIRkGf9tCg_J-214" value="" style="shape=flexArrow;endArrow=classic;html=1;rounded=0;fillColor=#7EA6E0;strokeColor=none;" edge="1" parent="1">
          <mxGeometry width="50" height="50" relative="1" as="geometry">
            <mxPoint x="990" y="710" as="sourcePoint" />
            <mxPoint x="890" y="660" as="targetPoint" />
          </mxGeometry>
        </mxCell>
        <mxCell id="CHzbfjj1ZIRkGf9tCg_J-220" value="Omninanny Server" style="text;html=1;strokeColor=none;fillColor=none;align=center;verticalAlign=middle;whiteSpace=wrap;rounded=0;fontSize=19;fontFamily=Comic Sans MS;fontStyle=1;container=0;movable=1;resizable=1;rotatable=1;deletable=1;editable=1;locked=0;connectable=1;" vertex="1" parent="1">
          <mxGeometry x="758.481304347826" y="550.0030434782609" width="155.2173913043478" height="20.869565217391305" as="geometry" />
        </mxCell>
        <mxCell id="CHzbfjj1ZIRkGf9tCg_J-221" value="" style="shape=image;verticalLabelPosition=bottom;labelBackgroundColor=default;verticalAlign=top;aspect=fixed;imageAspect=0;image=data:image/png,iVBORw0KGgoAAAANSUhEUgAABAAAAAQACAYAAAB/HSuDAAAAAXNSR0IArs4c6QAAIABJREFUeF7s2z3Obl0SHuRzMqZATkyCRMYUbKaCbDEKzFTAg7IISUEEH2o5I0B6qtZ2/V0ttTp5195V172k/fTdX//9418ECBAgQIAAAQIECBAgQIDAeoG/6ze0IAECBAgQIECAAAECBAgQIPBHAeASECBAgAABAgQIECBAgACBAwIKgAMhW5EAAQIECBAgQIAAAQIECCgA3AECBAgQIECAAAECBAgQIHBAQAFwIGQrEiBAgAABAgQIECBAgAABBYA7QIAAAQIECBAgQIAAAQIEDggoAA6EbEUCBAgQIECAAAECBAgQIKAAcAcIECBAgAABAgQIECBAgMABAQXAgZCtSIAAAQIECBAgQIAAAQIEFADuAAECBAgQIECAAAECBAgQOCCgADgQshUJECBAgAABAgQIECBAgIACwB0gQIAAAQIECBAgQIAAAQIHBBQAB0K2IgECBAgQIECAAAECBAgQUAC4AwQIECBAgAABAgQIECBA4ICAAuBAyFYkQIAAAQIECBAgQIAAAQIKAHeAAAECBAgQIECAAAECBAgcEFAAHAjZigQIECBAgAABAgQIECBAQAHgDhAgQIAAAQIECBAgQIAAgQMCCoADIVuRAAECBAgQIECAAAECBAgoANwBAgQIECBAgAABAgQIECBwQEABcCBkKxIgQIAAAQIECBAgQIAAAQWAO0CAAAECBAgQIECAAAECBA4IKAAOhGxFAgQIECBAgAABAgQIECCgAHAHCBAgQIAAAQIECBAgQIDAAQEFwIGQrUiAAAECBAgQIECAAAECBBQA7gABAgQIECBAgAABAgQIEDggoAA4ELIVCRAgQIAAAQIECBAgQICAAsAdIECAAAECBAgQIECAAAECBwQUAAdCtiIBAgQIECBAgAABAgQIEFAAuAMECBAgQIAAAQIECBAgQOCAgALgQMhWJECAAAECBAgQIECAAAECCgB3gAABAgQIECBAgAABAgQIHBBQABwI2YoECBAgQIAAAQIECBAgQEAB4A4QIECAAAECBAgQIECAAIEDAgqAAyFbkQABAgQIECBAgAABAgQIKADcAQIECBAgQIAAAQIECBAgcEBAAXAgZCsSIECAAAECBAgQIECAAAEFgDtAgAABAgQIECBAgAABAgQOCCgADoRsRQIECBAgQIAAAQIECBAgoABwBwgQIECAAAECBAgQIECAwAEBBcCBkK1IgAABAgQIECBAgAABAgQUAO4AAQIECBAgQIAAAQIECBA4IKAAOBCyFQkQIECAAAECBAgQIECAgALAHSBAgAABAgQIECBAgAABAgcEFAAHQrYiAQIECBAgQIAAAQIECBBQALgDBAgQIECAAAECBAgQIEDggIAC4EDIViRAgAABAgQIECBAgAABAgoAd4AAAQIECBAgQIAAAQIECBwQUAAcCNmKBAgQIECAAAECBAgQIEBAAeAOECBAgAABAgQIECBAgACBAwIKgAMhW5EAAQIECBAgQIAAAQIECCgA3AECBAgQIECAAAECBAgQIHBAQAFwIGQrEiBAgAABAgQIECBAgAABBYA7QIAAAQIECBAgQIAAAQIEDggoAA6EbEUCBAgQIECAAAECBAgQIKAAcAcIECBAgAABAgQIECBAgMABAQXAgZCtSIAAAQIECBAgQIAAAQIEFADuAAECBAgQIECAAAECBAgQOCCgADgQshUJECBAgAABAgQIECBAgIACwB0gQIAAAQIECBAgQIAAAQIHBBQAB0K2IgECBAgQIECAAAECBAgQUAC4AwQIECBAgAABAgQIECBA4ICAAuBAyFYkQIAAAQIECBAgQIAAAQIKAHeAAAECBAgQIECAAAECBAgcEFAAHAjZigQIECBAgAABAgQIECBAQAHgDhAgQIAAAQIECBAgQIAAgQMCCoADIVuRAAECBAgQIECAAAECBAgoANwBAgQIECBAgAABAgQIECBwQEABcCBkKxIgQIAAAQIECBAgQIAAAQWAO0CAAAECBAgQIECAAAECBA4IKAAOhGxFAgQIECBAgAABAgQIECCgAHAHCBAgQIAAAQIECBAgQIDAAQEFwIGQrUiAAAECBAgQIECAAAECBBQA7gABAgQIECBAgAABAgQIEDggoAA4ELIVCRAgQIAAAQIECBAgQICAAsAdIECAAAECBAgQIECAAAECBwQUAAdCtiIBAgQIECBAgAABAgQIEFAAuAMECBAgQIAAAQIECBAgQOCAgALgQMhWJECAAAECBAgQIECAAAECCgB3gAABAgQIECBAgAABAgQIHBBQABwI2YoECBAgQIAAAQIECBAgQEAB4A4QIECAAAECBAgQIECAAIEDAgqAAyFbkQABAgQIECBAgAABAgQIKADcAQIECBAgQIAAAQIECBAgcEBAAXAgZCsSIECAAAECBAgQIECAAAEFgDtAgAABAgQIECBAgAABAgQOCCgADoRsRQIECBAgQIAAAQIECBAgoABwBwgQIECAAAECBAgQIECAwAEBBcCBkK1IgAABAgQIECBAgAABAgQUAO4AAQIECBAgQIAAAQIECBA4IKAAOBCyFQkQIECAAAECBAgQIECAgALAHSBAgAABAgQIECBAgAABAgcEFAAHQrYiAQIECBAgQIAAAQIECBBQALgDBAgQIECAAAECBAgQIEDggIAC4EDIViRAgAABAgQIECBAgAABAgoAd4AAAQIECBAgQIAAAQIECBwQUAAcCNmKBAgQIECAAAECBAgQIEBAAeAOECBAgAABAgQIECBAgACBAwIKgAMhW5EAAQIECBAgQIAAAQIECCgA3AECBAgQIECAAAECBAgQIHBAQAFwIGQrEiBAgAABAgQIECBAgAABBYA7QIAAAQIECBAgQIAAAQIEDggoAA6EbEUCBAgQIECAAAECBAgQIKAAcAcIECBAgAABAgQIECBAgMABAQXAgZCtSIAAAQIECBAgQIAAAQIEFADuAAECBAgQIECAAAECBAgQOCCgADgQshUJECBAgAABAgQIECBAgIACwB0gQIAAAQIECBAgQIAAAQIHBBQAB0K2IgECBAgQIECAAAECBAgQUAC4AwQIECBAgAABAgQIECBA4ICAAuBAyFYkQIAAAQIECBAgQIAAAQIKAHeAAAECBAgQIECAAAECBAgcEFAAHAjZigQIECBAgAABAgQIECBAQAHgDhAgQIAAAQIECBAgQIAAgQMCCoADIVuRAAECBAgQIECAAAECBAgoANwBAgQIECBAgAABAgQIECBwQEABcCBkKxIgQIAAAQIECBAgQIAAAQWAO0CAAAECBAgQIECAAAECBA4IKAAOhGxFAgQIECBAgAABAgQIECCgAHAHCBAgQIAAAQIECBAgQIDAAQEFwIGQrUiAAAECBAgQIECAAAECBBQA7gABAgQIECBAgAABAgQIEDggoAA4ELIVCRAgQIAAAQIECBAgQICAAsAdIECAAAECBAgQIECAAAECBwQUAAdCtiIBAgQIECBAgAABAgQIEFAAuAMECBAgQIAAAQIECBAgQOCAgALgQMhWJECAAAECBAgQIECAAAECCgB3gAABAgQIECBAgAABAgQIHBBQABwI2YoECBAgQIAAAQIECBAgQEAB4A4QIECAAAECBAgQIECAAIEDAgqAAyFbkQABAgQIECBAgAABAgQIKADcAQIECBAgQIAAAQIECBAgcEBAAXAgZCsSIECAAAECBAgQIECAAAEFgDtAgAABAgQIECBAgAABAgQOCCgADoRsRQIECBAgQIAAAQIECBAgoABwBwgQIECAAAECBAgQIECAwAEBBcCBkK1IgAABAgQIECBAgAABAgQUAO4AAQIECBAgQIAAAQIECBA4IKAAOBCyFQkQIECAAAECBAgQIECAgALAHSBAgAABAgQIECBAgAABAgcEFAAHQrYiAQIECBAgQIAAAQIECBBQALgDBAgQIECAAAECBAgQIEDggIAC4EDIViRAgAABAgQIECBAgAABAgoAd4AAAQIECBAgQIAAAQIECBwQUAAcCNmKBAgQIECAAAECBAgQIEBAAeAOECBAgAABAgQIECBAgACBAwIKgAMhW5EAAQIECBAgQIAAAQIECCgA3AECBAgQIECAAAECBAgQIHBAQAFwIGQrEiBAgAABAgQIECBAgAABBYA7QIAAAQIECBAgQIAAAQIEDggoAA6EbEUCBAgQIECAAAECBAgQIKAAcAcIECBAgAABAgQIECBAgMABAQXAgZCtSIAAAQIECBAgQIAAAQIEFADuAAECBAgQIECAAAECBAgQOCCgADgQshUJECBAgAABAgQIECBAgIACwB0gQIAAAQIECBAgQIAAAQIHBBQAB0K2IgECBAgQIECAAAECBAgQUAC4AwQIECBAgAABAgQIECBA4ICAAuBAyFYkQIAAAQIECBAgQIAAAQIKAHeAAAECBAgQIECAAAECBAgcEFAAHAjZigQIECBAgAABAgQIECBAQAHgDhAgQIAAAQIECBAgQIAAgQMCCoADIVuRAAECBAgQIECAAAECBAgoANwBAgQIECBAgAABAgQIECBwQEABcCBkKxIgQIAAAQIECBAgQIAAAQWAO0CAAAECBAgQIECAAAECBA4IKAAOhGxFAgQIECBAgAABAgQIECCgAHAHCBAgQIAAAQIECBAgQIDAAQEFwIGQrUiAAAECBAgQIECAAAECBBQA7gABAgQIECBAgAABAgQIEDggoAA4ELIVCRAgQIAAAQIECBAgQICAAsAdIECAAAECBAgQIECAAAECBwQUAAdCtiIBAgQIECBAgAABAgQIEFAAuAMECBAgQIAAAQIECBAgQOCAgALgQMhWJECAAAECBAgQIECAAAECCgB3gAABAgQIECBAgAABAgQIHBBQABwI2YoECBAgQIAAAQIECBAgQEAB4A4QIECAAAECBAgQIECAAIEDAgqAAyFbkQABAgQIECBAgAABAgQIKADcAQIECBAgQIAAAQIECBAgcEBAAXAgZCsSIECAAAECBAgQIECAAAEFgDtAgAABAgQIECBAgAABAgQOCCgADoRsRQIECBAgQIAAAQIECBAgoABwBwgQIECAAAECBAgQIECAwAEBBcCBkK1IgAABAgQIECBAgAABAgQUAO4AAQIECBAgQIAAAQIECBA4IKAAOBCyFQkQIECAAAECBAgQIECAgALAHSBAgAABAgQIECBAgAABAgcEFAAHQrYiAQIECBAgQIAAAQIECBBQALgDBAgQIECAAAECBAgQIEDggIAC4EDIViRAgAABAgQIECBAgAABAgoAd4AAAQIECBAgQIAAAQIECBwQUAAcCNmKBAgQIECAAAECBAgQIEBAAeAOECBAgAABAgQIECBAgACBAwIKgAMhW5EAAQIECBAgQIAAAQIECCgA3AECBAgQIECAAAECBAgQIHBAQAFwIGQrEiBAgAABAgQIECBAgAABBYA7QIAAAQIECBAgQIAAAQIEDggoAA6EbEUCBAgQIECAAAECBAgQIKAAcAcIECBAgAABAgQIECBAgMABAQXAgZCtSIAAAQIECBAgQIAAAQIEFADuAAECBAgQIECAAAECBAgQOCCgADgQshUJECBAgAABAgQIECBAgIACwB0gQIAAAQIECBAgQIAAAQIHBBQAB0K2IgECBAgQIECAAAECBAgQUAC4AwQIECBAgAABAgQIECBA4ICAAuBAyFYkQIAAAQIECBAgQIAAAQIKAHeAAAECBAgQIECAAAECBAgcEFAAHAjZigQIECBAgAABAgQIECBAQAHgDhAgQIAAAQIECBAgQIAAgQMCCoADIVuRAAECBAgQIECAAAECBAgoANwBAgQIECBAgAABAgQIECBwQEABcCBkKxIgQIAAAQIECBAgQIAAAQWAO0CAAAECBAgQIECAAAECBA4IKAAOhGxFAgQIECBAgAABAgQIECCgAHAHCBAgQIAAAQIECBAgQIDAAQEFwIGQrUiAAAECBAgQIECAAAECBBQA7gABAgQIECBAgAABAgQIEDggoAA4ELIVCRAgQIAAAQIECBAgQICAAsAdIECAAAECBAgQIECAAAECBwQUAAdCtiIBAgQIECBAgAABAgQIEFAAuAMECBAgQIAAAQIECBAgQOCAgALgQMhWJECAAAECBAgQIECAAAECCgB3gAABAgQIECBAgAABAgQIHBBQABwI2YoECBAgQIAAAQIECBAgQEAB4A4QIECAAAECBAgQIECAAIEDAgqAAyFbkQABAgQIECBAgAABAgQIKADcAQIECBAgQIAAAQIECBAgcEBAAXAgZCsSIECAAAECBAgQIECAAAEFgDtAgAABAgQIECBAgAABAgQOCCgADoRsRQIECBAgQIAAAQIECBAg8HMB8M8///yDjQABAh8J/Ie/f//++4+e7bEE/n8F/vnnn//458+ff4OJAAECjwX+/d+/f//D42d6XCMB349GYRwc5e/fvz/9d/qf/vhfngqAg7fKygT+ywkoAP7LWXvT/0fADzhXggCBjwQUAB/Bdnms70eXJG7OoQC4mbutCWwRUABsSXLgHn7ADQzNyARmCCgAZuQUntL3I0zn4AMBBcADRI8gQKBMQAFQRu/FfsC5AwQIfCSgAPgItstjfT+6JHFzDgXAzdxtTWCLgAJgS5ID9/ADbmBoRiYwQ0ABMCOn8JS+H2E6Bx8IKAAeIHoEAQJlAgqAMnov9gPOHSBA4CMBBcBHsF0e6/vRJYmbcygAbuZuawJbBBQAW5IcuIcfcANDMzKBGQIKgBk5haf0/QjTOfhAQAHwANEjCBAoE1AAlNF7sR9w7gABAh8JKAA+gu3yWN+PLkncnEMBcDN3WxPYIqAA2JLkwD38gBsYmpEJzBBQAMzIKTyl70eYzsEHAgqAB4geQYBAmYACoIzei/2AcwcIEPhIQAHwEWyXx/p+dEni5hwKgJu525rAFgEFwJYkB+7hB9zA0IxMYIaAAmBGTuEpfT/CdA4+EFAAPED0CAIEygQUAGX0XuwHnDtAgMBHAgqAj2C7PNb3o0sSN+dQANzM3dYEtggoALYkOXAPP+AGhmZkAjMEFAAzcgpP6fsRpnPwgYAC4AGiRxAgUCagACij92I/4NwBAgQ+ElAAfATb5bG+H12SuDmHAuBm7rYmsEVAAbAlyYF7+AE3MDQjE5ghoACYkVN4St+PMJ2DDwQUAA8QPYIAgTIBBUAZvRf7AecOECDwkYAC4CPYLo/1/eiSxM05FAA3c7c1gS0CCoAtSQ7cww+4gaEZmcAMAQXAjJzCU/p+hOkcfCCgAHiA6BEECJQJKADK6L3YDzh3gACBjwQUAB/Bdnms70eXJG7OoQC4mbutCWwRUABsSXLgHn7ADQzNyARmCCgAZuQUntL3I0zn4AMBBcADRI8gQKBMQAFQRu/FfsC5AwQIfCSgAPgItstjfT+6JHFzDgXAzdxtTWCLgAJgS5ID9/ADbmBoRiYwQ0ABMCOn8JS+H2E6Bx8IKAAeIHoEAQJlAgqAMnov9gPOHSBA4CMBBcBHsF0e6/vRJYmbcygAbuZuawJbBBQAW5IcuIcfcANDMzKBGQIKgBk5haf0/QjTOfhAQAHwANEjCBAoE1AAlNF7sR9w7gABAh8JKAA+gu3yWN+PLkncnEMBcDN3WxPYIqAA2JLkwD38gBsYmpEJzBBQAMzIKTyl70eYzsEHAgqAB4geQYBAmYACoIzei/2AcwcIEPhIQAHwEWyXx/p+dEni5hwKgJu525rAFgEFwJYkB+7hB9zA0IxMYIaAAmBGTuEpfT/CdA4+EFAAPED0CAIEygQUAGX0XuwHnDtAgMBHAgqAj2C7PNb3o0sSN+dQANzM3dYEtggoALYkOXAPP+AGhmZkAjMEFAAzcgpP6fsRpnPwgYAC4AGiRxAgUCagACij92I/4NwBAgQ+ElAAfATb5bG+H12SuDmHAuBm7rYmsEVAAbAlyYF7+AE3MDQjE5ghoACYkVN4St+PMJ2DDwQUAA8QPYIAgTIBBUAZvRf7AecOECDwkYAC4CPYLo/1/eiSxM05FAA3c7c1gS0CCoAtSQ7cww+4gaEZmcAMAQXAjJzCU/p+hOkcfCCgAHiA6BEECJQJKADK6L3YDzh3gACBjwQUAB/Bdnms70eXJG7OoQC4mbutCWwRUABsSXLgHn7ADQzNyARmCCgAZuQUntL3I0zn4AMBBcADRI8gQKBMQAFQRu/FfsC5AwQIfCSgAPgItstjfT+6JHFzDgXAzdxtTWCLgAJgS5ID9/ADbmBoRiYwQ0ABMCOn8JS+H2E6Bx8IKAAeIHoEAQJlAgqAMnov9gPOHSBA4CMBBcBHsF0e6/vRJYmbcygAbuZuawJbBBQAW5IcuIcfcANDMzKBGQIKgBk5haf0/QjTOfhAQAHwANEjCBAoE1AAlNF7sR9w7gABAh8JKAA+gu3yWN+PLkncnEMBcDN3WxPYIqAA2JLkwD38gBsYmpEJzBBQAMzIKTyl70eYzsEHAgqAB4geQYBAmYACoIzei/2AcwcIEPhIQAHwEWyXx/p+dEni5hwKgJu525rAFgEFwJYkB+7hB9zA0IxMYIaAAmBGTuEpfT/CdA4+EFAAPED0CAIEygQUAGX0XuwHnDtAgMBHAgqAj2C7PNb3o0sSN+dQANzM3dYEtggoALYkOXAPP+AGhmZkAjMEFAAzcgpP6fsRpnPwgYAC4AGiRxAgUCagACij92I/4NwBAgQ+ElAAfATb5bG+H12SuDmHAuBm7rYmsEVAAbAlyYF7+AE3MDQjE5ghoACYkVN4St+PMJ2DDwQUAA8QPYIAgTIBBUAZvRf7AecOECDwkYAC4CPYLo/1/eiSxM05FAA3c7c1gS0CCoAtSQ7cww+4gaEZmcAMAQXAjJzCU/p+hOkcfCCgAHiA6BEECJQJKADK6L3YDzh3gACBjwQUAB/Bdnms70eXJG7OoQC4mbutCWwRUABsSXLgHn7ADQzNyARmCCgAZuQUntL3I0zn4AMBBcADRI8gQKBMQAFQRu/FfsC5AwQIfCSgAPgItstjfT+6JHFzDgXAzdxtTWCLgAJgS5ID9/ADbmBoRiYwQ0ABMCOn8JS+H2E6Bx8IKAAeIHoEAQJlAgqAMnov9gPOHSBA4CMBBcBHsF0e6/vRJYmbcygAbuZuawJbBBQAW5IcuIcfcANDMzKBGQIKgBk5haf0/QjTOfhAQAHwANEjCBAoE1AAlNF7sR9w7gABAh8JKAA+gu3yWN+PLkncnEMBcDN3WxPYIqAA2JLkwD38gBsYmpEJzBBQAMzIKTyl70eYzsEHAgqAB4geQYBAmYACoIzei/2AcwcIEPhIQAHwEWyXx/p+dEni5hwKgJu525rAFgEFwJYkB+7hB9zA0IxMYIaAAmBGTuEpfT/CdA4+EFAAPED0CAIEygQUAGX0XuwHnDtAgMBHAgqAj2C7PNb3o0sSN+dQANzM3dYEtggoALYkOXAPP+AGhmZkAjMEFAAzcgpP6fsRpnPwgYAC4AGiRxAgUCagACij92I/4NwBAgQ+ElAAfATb5bG+H12SuDmHAuBm7rYmsEVAAbAlyYF7+AE3MDQjE5ghoACYkVN4St+PMJ2DDwQUAA8QPYIAgTIBBUAZvRf7AecOECDwkYAC4CPYLo/1/eiSxM05FAA3c7c1gS0CCoAtSQ7cww+4gaEZmcAMAQXAjJzCU/p+hOkcfCCgAHiA6BEECJQJKADK6L3YDzh3gACBjwQUAB/Bdnms70eXJG7OoQC4mbutCWwRUABsSXLgHn7ADQzNyARmCCgAZuQUntL3I0zn4AMBBcADRI8gQKBMQAFQRu/FfsC5AwQIfCSgAPgItstjfT+6JHFzDgXAzdxtTWCLgAJgS5ID9/ADbmBoRiYwQ0ABMCOn8JS+H2E6Bx8IKAAeIHoEAQJlAgqAMnov9gPOHSBA4CMBBcBHsF0e6/vRJYmbcygAbuZuawJbBBQAW5IcuIcfcANDMzKBGQIKgBk5haf0/QjTOfhAQAHwANEjCBAoE1AAlNF7sR9w7gABAh8JKAA+gu3yWN+PLkncnEMBcDN3WxPYIqAA2JLkwD38gBsYmpEJzBBQAMzIKTyl70eYzsEHAgqAB4geQYBAmYACoIzei/2AcwcIEPhIQAHwEWyXx/p+dEni5hwKgJu525rAFgEFwJYkB+7hB9zA0IxMYIaAAmBGTuEpfT/CdA4+EFAAPED0CAIEygQUAGX0XuwHnDtAgMBHAgqAj2C7PNb3o0sSN+dQANzM3dYEtggoALYkOXAPP+AGhmZkAjMEFAAzcgpP6fsRpnPwgYAC4AGiRxAgUCagACij92I/4NwBAgQ+ElAAfATb5bG+H12SuDmHAuBm7rYmsEVAAbAlyYF7+AE3MDQjE5ghoACYkVN4St+PMJ2DDwQUAA8QPYIAgTIBBUAZvRf7AecOECDwkYAC4CPYLo/1/eiSxM05FAA3c7c1gS0CCoAtSQ7cww+4gaEZmcAMAQXAjJzCU/p+hOkcfCCgAHiA6BEECJQJKADK6L3YDzh3gACBjwQUAB/Bdnms70eXJG7OoQC4mbutCWwRUABsSXLgHn7ADQzNyARmCCgAZuQUntL3I0zn4AMBBcADRI8gQKBMQAFQRu/FfsC5AwQIfCSgAPgItstjfT+6JHFzDgXAzdxtTWCLgAJgS5ID9/ADbmBoRiYwQ0ABMCOn8JS+H2E6Bx8IKAAeIHoEAQJlAgqAMnov9gPOHSBA4CMBBcBHsF0e6/vRJYmbcygAbuZuawJbBBQAW5IcuIcfcANDMzKBGQIKgBk5haf0/QjTOfhAQAHwANEjCBAoE1AAlNF7sR9w7gABAh8JKAA+gu3yWN+PLkncnEMBcDN3WxPYIqAA2JLkwD38gBsYmpEJzBBQAMzIKTyl70eYzsEHAgqAB4geQYBAmYACoIzei/0lH6osAAAgAElEQVSAcwcIEPhIQAHwEWyXx/p+dEni5hwKgJu525rAFgEFwJYkB+7hB9zA0IxMYIaAAmBGTuEpfT/CdA4+EFAAPED0CAIEygQUAGX0XuwHnDtAgMBHAgqAj2C7PNb3o0sSN+dQANzM3dYEtggoALYkOXAPP+AGhmZkAjMEFAAzcgpP6fsRpnPwgYAC4AGiRxAgUCagACij92I/4NwBAgQ+ElAAfATb5bG+H12SuDmHAuBm7rYmsEVAAbAlyYF7+AE3MDQjE5ghoACYkVN4St+PMJ2DDwQUAA8QPYIAgTIBBUAZvRf7AecOECDwkYAC4CPYLo/1/eiSxM05FAA3c7c1gS0CCoAtSQ7cww+4gaEZmcAMAQXAjJzCU/p+hOkcfCCgAHiA6BEECJQJKADK6L3YDzh3gACBjwQUAB/Bdnms70eXJG7OoQC4mbutCWwRUABsSXLgHn7ADQzNyARmCCgAZuQUntL3I0zn4AMBBcADRI8gQKBMQAFQRu/FfsC5AwQIfCSgAPgItstjfT+6JHFzDgXAzdxtTWCLgAJgS5ID9/ADbmBoRiYwQ0ABMCOn8JS+H2E6Bx8IKAAeIHoEAQJlAgqAMnov9gPOHSBA4CMBBcBHsF0e6/vRJYmbcygAbuZuawJbBBQAW5IcuIcfcANDMzKBGQIKgBk5haf0/QjTOfhAQAHwANEjCBAoE1AAlNF7sR9w7gABAh8JKAA+gu3yWN+PLkncnEMBcDN3WxPYIqAA2JLkwD38gBsYmpEJzBBQAMzIKTyl70eYzsEHAgqAB4geQYBAmYACoIzei/2AcwcIEPhIQAHwEWyXx/p+dEni5hwKgJu525rAFgEFwJYkB+7hB9zA0IxMYIaAAmBGTuEpfT/CdA4+EFAAPED0CAIEygQUAGX0XuwHnDtAgMBHAgqAj2C7PNb3o0sSN+dQANzM3dYEtggoALYkOXAPP+AGhmZkAjMEFAAzcgpP6fsRpnPwgYAC4AGiRxAgUCagACij92I/4NwBAgQ+ElAAfATb5bG+H12SuDmHAuBm7rYmsEVAAbAlyYF7+AE3MDQjE5ghoACYkVN4St+PMJ2DDwQUAA8QPYIAgTIBBUAZvRf7AecOECDwkYAC4CPYLo/1/eiSxM05FAA3c7c1gS0CCoAtSQ7cww+4gaEZmcAMAQXAjJzCU/p+hOkcfCCgAHiA6BEECJQJKADK6L3YDzh3gACBjwQUAB/Bdnms70eXJG7OoQC4mbutCWwRUABsSXLgHn7ADQzNyARmCCgAZuQUntL3I0zn4AMBBcADRI8gQKBMQAFQRu/FfsC5AwQIfCSgAPgItstjfT+6JHFzDgXAzdxtTWCLgAJgS5ID9/ADbmBoRiYwQ0ABMCOn8JS+H2E6Bx8IKAAeIHoEAQJlAgqAMnov9gPOHSBA4CMBBcBHsF0e6/vRJYmbcygAbuZuawJbBBQAW5IcuIcfcANDMzKBGQIKgBk5haf0/QjTOfhAQAHwANEjCBAoE1AAlNF7sR9w7gABAh8JKAA+gu3yWN+PLkncnEMBcDN3WxPYIqAA2JLkwD38gBsYmpEJzBBQAMzIKTyl70eYzsEHAgqAB4geQYBAmYACoIzei/2AcwcIEPhIQAHwEWyXx/p+dEni5hwKgJu525rAFgEFwJYkB+7hB9zA0IxMYIaAAmBGTuEpfT/CdA4+EFAAPED0CAIEygQUAGX0XuwHnDtAgMBHAgqAj2C7PNb3o0sSN+dQANzM3dYEtggoALYkOXAPP+AGhmZkAjMEFAAzcgpP6fsRpnPwgYAC4AGiRxAgUCagACij92I/4NwBAgQ+ElAAfATb5bG+H12SuDmHAuBm7rYmsEVAAbAlyYF7+AE3MDQjE5ghoACYkVN4St+PMJ2DDwQUAA8QPYIAgTIBBUAZvRf7AecOECDwkYAC4CPYLo/1/eiSxM05FAA3c7c1gS0CCoAtSQ7cww+4gaEZmcAMAQXAjJzCU/p+hOkcfCCgAHiA6BEECJQJKADK6L3YDzh3gACBjwQUAB/Bdnms70eXJG7OoQC4mbutCWwRUABsSXLgHn7ADQzNyARmCCgAZuQUntL3I0zn4AMBBcADRI8gQKBMQAFQRu/FfsC5AwQIfCSgAPgItstjfT+6JHFzDgXAzdxtTWCLgAJgS5ID9/ADbmBoRiYwQ0ABMCOn8JS+H2E6Bx8IKAAeIHoEAQJlAgqAMnov9gPOHSBA4CMBBcBHsF0e6/vRJYmbcygAbuZuawJbBBQAW5IcuIcfcANDMzKBGQIKgBk5haf0/QjTOfhAQAHwANEjCBAoE1AAlNF7sR9w7gABAh8JKAA+gu3yWN+PLkncnEMBcDN3WxPYIqAA2JLkwD38gBsYmpEJzBBQAMzIKTyl70eYzsEHAgqAB4geQYBAmYACoIzei/2AcwcIEPhIQAHwEWyXx/p+dEni5hwKgJu525rAFgEFwJYkB+7hB9zA0IxMYIaAAmBGTuEpfT/CdA4+EFAAPED0CAIEygQUAGX0XuwHnDtAgMBHAgqAj2C7PNb3o0sSN+dQANzM3dYEtggoALYkOXAPP+AGhmZkAjMEFAAzcgpP6fsRpnPwgYAC4AGiRxAgUCagACij92I/4NwBAgQ+ElAAfATb5bG+H12SuDmHAuBm7rYmsEVAAbAlyYF7+AE3MDQjE5ghoACYkVN4St+PMJ2DDwQUAA8QPYIAgTIBBUAZvRf7AecOECDwkYAC4CPYLo/1/eiSxM05FAA3c7c1gS0CCoAtSQ7cww+4gaEZmcAMAQXAjJzCU/p+hOkcfCCgAHiA6BEECJQJKADK6L3YDzh3gACBjwQUAB/Bdnms70eXJG7OoQC4mbutCWwRUABsSXLgHn7ADQzNyARmCCgAZuQUntL3I0zn4AMBBcADRI8gQKBMQAFQRu/FfsC5AwQIfCSgAPgItstjfT+6JHFzDgXAzdxtTWCLgAJgS5ID9/ADbmBoRiYwQ0ABMCOn8JS+H2E6Bx8IKAAeIHoEAQJlAgqAMnov9gPOHSBA4CMBBcBHsF0e6/vRJYmbcygAbuZuawJbBBQAW5IcuIcfcANDMzKBGQIKgBk5haf0/QjTOfhAQAHwANEjCBAoE1AAlNF7sR9w7gABAh8JKAA+gu3yWN+PLkncnEMBcDN3WxPYIqAA2JLkwD38gBsYmpEJzBBQAMzIKTyl70eYzsEHAgqAB4geQYBAmYACoIzei/2AcwcIEPhIQAHwEWyXx/p+dEni5hwKgJu525rAFgEFwJYkB+7hB9zA0IxMYIaAAmBGTuEpfT/CdA4+EFAAPED0CAIEygQUAGX0XuwHnDtAgMBHAgqAj2C7PNb3o0sSN+dQANzM3dYEtggoALYkOXAPP+AGhmZkAjMEFAAzcgpP6fsRpnPwgYAC4AGiRxAgUCagACij92I/4NwBAgQ+ElAAfATb5bG+H12SuDmHAuBm7rYmsEVAAbAlyYF7+AE3MDQjE5ghoACYkVN4St+PMJ2DDwQUAA8QPYIAgTIBBUAZvRf7AecOECDwkYAC4CPYLo/1/eiSxM05FAA3c7c1gS0CCoAtSQ7cww+4gaEZmcAMAQXAjJzCU/p+hOkcfCCgAHiA6BEECJQJKADK6L3YDzh3gACBjwQUAB/Bdnms70eXJG7OoQC4mbutCWwRUABsSXLgHn7ADQzNyARmCCgAZuQUntL3I0zn4AMBBcADRI8gQKBMQAFQRu/FfsC5AwQIfCSgAPgItstjfT+6JHFzDgXAzdxtTWCLgAJgS5ID9/ADbmBoRiYwQ0ABMCOn8JS+H2E6Bx8IKAAeIHoEAQJlAgqAMnov9gPOHSBA4CMBBcBHsF0e6/vRJYmbcygAbuZuawJbBBQAW5IcuIcfcANDMzKBGQIKgBk5haf0/QjTOfhAQAHwANEjCBAoE1AAlNF7sR9w7gABAh8JKAA+gu3yWN+PLkncnEMBcDN3WxPYIqAA2JLkwD38gBsYmpEJzBBQAMzIKTyl70eYzsEHAgqAB4geQYBAmYACoIzei/2AcwcIEPhIQAHwEWyXx/p+dEni5hwKgJu525rAFgEFwJYkB+7hB9zA0IxMYIaAAmBGTuEpfT/CdA4+EFAAPED0CAIEygQUAGX0XuwHnDtAgMBHAgqAj2C7PNb3o0sSN+dQANzM3dYEtggoALYkOXAPP+AGhmZkAjMEFAAzcgpP6fsRpnPwgYAC4AGiRxAgUCagACij92I/4NwBAgQ+ElAAfATb5bG+H12SuDmHAuBm7rYmsEVAAbAlyYF7+AE3MDQjE5ghoACYkVN4St+PMJ2DDwQUAA8QPYIAgTIBBUAZvRf7AecOECDwkYAC4CPYLo/1/eiSxM05FAA3c7c1gS0CCoAtSQ7cww+4gaEZmcAMAQXAjJzCU/p+hOkcfCCgAHiA6BEECJQJKADK6L3YDzh3gACBjwQUAB/Bdnms70eXJG7OoQC4mbutCWwRUABsSXLgHn7ADQzNyARmCCgAZuQUntL3I0zn4AMBBcADRI8gQKBMQAFQRu/FfsC5AwQIfCSgAPgItstjfT+6JHFzDgXAzdxtTWCLgAJgS5ID9/ADbmBoRiYwQ0ABMCOn8JS+H2E6Bx8IKAAeIHoEAQJlAgqAMnov9gPOHSBA4CMBBcBHsF0e6/vRJYmbcygAbuZuawJbBBQAW5IcuIcfcANDMzKBGQIKgBk5haf0/QjTOfhAQAHwANEjCBAoE1AAlNF7sR9w7gABAh8JKAA+gu3yWN+PLkncnEMBcDN3WxPYIqAA2JLkwD38gBsYmpEJzBBQAMzIKTyl70eYzsEHAgqAB4geQYBAmYACoIzei/2AcwcIEPhIQAHwEWyXx/p+dEni5hwKgJu525rAFgEFwJYkB+7hB9zA0IxMYIaAAmBGTuEpfT/CdA4+EFAAPED0CAIEygQUAGX0XuwHnDtAgMBHAgqAj2C7PNb3o0sSN+dQANzM3dYEtggoALYkOXAPP+AGhmZkAjMEFAAzcgpP6fsRpnPwgYAC4AGiRxAgUCagACij92I/4NwBAgQ+ElAAfATb5bG+H12SuDmHAuBm7rYmsEVAAbAlyYF7+AE3MDQjE5ghoACYkVN4St+PMJ2DDwQUAA8QPYIAgTIBBUAZvRf7AecOECDwkYAC4CPYLo/1/eiSxM05FAA3c7c1gS0CCoAtSQ7cww+4gaEZmcAMAQXAjJzCU/p+hOkcfCCgAHiA6BEECJQJKADK6L3YDzh3gACBjwQUAB/Bdnms70eXJG7OoQC4mbutCWwRUABsSXLgHn7ADQzNyARmCCgAZuQUntL3I0zn4AMBBcADRI8gQKBMQAFQRu/FfsC5AwQIfCSgAPgItstjfT+6JHFzDgXAzdxtTWCLgAJgS5ID9/ADbmBoRiYwQ0ABMCOn8JS+H2E6Bx8IKAAeIHoEAQJlAgqAMnov9gPOHSBA4CMBBcBHsF0e6/vRJYmbcygAbuZuawJbBBQAW5IcuIcfcANDMzKBGQIKgBk5haf0/QjTOfhAQAHwANEjCBAoE1AAlNF7sR9w7gABAh8JKAA+gu3yWN+PLkncnEMBcDN3WxPYIqAA2JLkwD38gBsYmpEJzBBQAMzIKTyl70eYzsEHAgqAB4geQYBAmYACoIzei/2AcwcIEPhIQAHwEWyXx/p+dEni5hwKgJu525rAFgEFwJYkB+7hB9zA0IxMYIaAAmBGTuEpfT/CdA4+EFAAPED0CAIEygQUAGX0XuwHnDtAgMBHAgqAj2C7PNb3o0sSN+dQANzM3dYEtggoALYkOXAPP+AGhmZkAjMEFAAzcgpP6fsRpnPwgYAC4AGiRxAgUCagACij92I/4NwBAgQ+ElAAfATb5bG+H12SuDmHAuBm7rYmsEVAAbAlyYF7+AE3MDQjE5ghoACYkVN4St+PMJ2DDwQUAA8QPYIAgTIBBUAZvRf7AecOECDwkYAC4CPYLo/1/eiSxM05FAA3c7c1gS0CCoAtSQ7cww+4gaEZmcAMAQXAjJzCU/p+hOkcfCCgAHiA6BEECJQJKADK6L3YDzh3gACBjwQUAB/Bdnms70eXJG7OoQC4mbutCWwRUABsSXLgHn7ADQzNyARmCCgAZuQUntL3I0zn4AMBBcADRI8gQKBMQAFQRu/FfsC5AwQIfCSgAPgItstjfT+6JHFzDgXAzdxtTWCLgAJgS5ID9/ADbmBoRiYwQ0ABMCOn8JS+H2E6Bx8IKAAeIHoEAQJlAgqAMnov9gPOHSBA4CMBBcBHsF0e6/vRJYmbcygAbuZuawJbBBQAW5IcuIcfcANDMzKBGQIKgBk5haf0/QjTOfhAQAHwANEjCBAoE1AAlNF7sR9w7gABAh8JKAA+gu3yWN+PLkncnEMBcDN3WxPYIqAA2JLkwD38gBsYmpEJzBBQAMzIKTyl70eYzsEHAgqAB4geQYBAmYACoIzei/2AcwcIEPhIQAHwEWyXx/p+dEni5hwKgJu525rAFgEFwJYkB+7hB9zA0IxMYIaAAmBGTuEpfT/CdA4+EFAAPED0CAIEygQUAGX0XuwHnDtAgMBHAgqAj2C7PNb3o0sSN+dQANzM3dYEtggoALYkOXAPP+AGhmZkAjMEFAAzcgpP6fsRpnPwgYAC4AGiRxAgUCagACij92I/4NwBAgQ+ElAAfATb5bG+H12SuDmHAuBm7rYmsEVAAbAlyYF7+AE3MDQjE5ghoACYkVN4St+PMJ2DDwQUAA8QPYIAgTIBBUAZvRf7AecOECDwkYAC4CPYLo/1/eiSxM05FAA3c7c1gS0CCoAtSQ7cww+4gaEZmcAMAQXAjJzCU/p+hOkcfCCgAHiA6BEECJQJKADK6L3YDzh3gACBjwQUAB/Bdnms70eXJG7OoQC4mbutCWwRUABsSXLgHn7ADQzNyARmCCgAZuQUntL3I0zn4AMBBcADRI8gQKBMQAFQRu/FfsC5AwQIfCSgAPgItstjfT+6JHFzDgXAzdxtTWCLgAJgS5ID9/ADbmBoRiYwQ0ABMCOn8JS+H2E6Bx8IKAAeIHoEAQJlAgqAMnov9gPOHSBA4CMBBcBHsF0e6/vRJYmbcygAbuZuawJbBBQAW5IcuIcfcANDMzKBGQIKgBk5haf0/QjTOfhAQAHwANEjCBAoE1AAlNF7sR9w7gABAh8JKAA+gu3yWN+PLkncnEMBcDN3WxPYIqAA2JLkwD38gBsYmpEJzBBQAMzIKTyl70eYzsEHAgqAB4geQYBAmYACoIzei/2AcwcIEPhIQAHwEWyXx/p+dEni5hwKgJu525rAFgEFwJYkB+7hB9zA0IxMYIaAAmBGTuEpfT/CdA4+EFAAPED0CAIEygQUAGX0XuwHnDtAgMBHAgqAj2C7PNb3o0sSN+dQANzM3dYEtggoALYkOXAPP+AGhmZkAjMEFAAzcgpP6fsRpnPwgYAC4AGiRxAgUCagACij92I/4NwBAgQ+ElAAfATb5bG+H12SuDmHAuBm7rYmsEVAAbAlyYF7+AE3MDQjE5ghoACYkVN4St+PMJ2DDwQUAA8QPYIAgTIBBUAZvRf7AecOECDwkYAC4CPYLo/1/eiSxM05FAA3c7c1gS0CCoAtSQ7cww+4gaEZmcAMAQXAjJzCU/p+hOkcfCCgAHiA6BEECJQJKADK6L3YDzh3gACBjwQUAB/Bdnms70eXJG7OoQC4mbutCWwRUABsSXLgHn7ADQzNyARmCCgAZuQUntL3I0zn4AMBBcADRI8gQKBMQAFQRu/FfsC5AwQIfCSgAPgItstjfT+6JHFzDgXAzdxtTWCLgAJgS5ID9/ADbmBoRiYwQ0ABMCOn8JS+H2E6Bx8IKAAeIHoEAQJlAgqAMnov9gPOHSBA4CMBBcBHsF0e6/vRJYmbcygAbuZuawJbBBQAW5IcuIcfcANDMzKBGQIKgBk5haf0/QjTOfhAQAHwANEjCBAoE1AAlNF7sR9w7gABAh8JKAA+gu3yWN+PLkncnEMBcDN3WxPYIqAA2JLkwD38gBsYmpEJzBBQAMzIKTyl70eYzsEHAgqAB4geQYBAmYACoIzei/2AcwcIEPhIQAHwEWyXx/p+dEni5hwKgJu525rAFgEFwJYkB+7hB9zA0IxMYIaAAmBGTuEpfT/CdA4+EFAAPED0CAIEygQUAGX0XuwHnDtAgMBHAgqAj2C7PNb3o0sSN+dQANzM3dYEtggoALYkOXAPP+AGhmZkAjMEFAAzcgpP6fsRpnPwgYAC4AGiRxAgUCagACij92I/4NwBAgQ+ElAAfATb5bG+H12SuDmHAuBm7rYmsEVAAbAlyYF7+AE3MDQjE5ghoACYkVN4St+PMJ2DDwQUAA8QPYIAgTIBBUAZvRf7AecOECDwkYAC4CPYLo/1/eiSxM05FAA3c7c1gS0CCoAtSQ7cww+4gaEZmcAMAQXAjJzCU/p+hOkcfCCgAHiA6BEECJQJKADK6L3YDzh3gACBjwQUAB/Bdnms70eXJG7OoQC4mbutCWwRUABsSXLgHn7ADQzNyARmCCgAZuQUntL3I0zn4AMBBcADRI8gQKBMQAFQRu/FfsC5AwQIfCSgAPgItstjfT+6JHFzDgXAzdxtTWCLgAJgS5ID9/ADbmBoRiYwQ0ABMCOn8JS+H2E6Bx8IKAAeIHoEAQJlAgqAMnov9gPOHSBA4CMBBcBHsF0e6/vRJYmbcygAbuZuawJbBBQAW5IcuIcfcANDMzKBGQIKgBk5haf0/QjTOfhAQAHwANEjCBAoE1AAlNF7sR9w7gABAh8JKAA+gu3yWN+PLkncnEMBcDN3WxPYIqAA2JLkwD38gBsYmpEJzBBQAMzIKTyl70eYzsEHAgqAB4geQYBAmYACoIzei/2AcwcIEPhIQAHwEWyXx/p+dEni5hwKgJu525rAFgEFwJYkB+7hB9zA0IxMYIaAAmBGTuEpfT/CdA4+EFAAPED0CAIEygQUAGX0XuwHnDtAgMBHAgqAj2C7PNb3o0sSN+dQANzM3dYEtggoALYkOXAPP+AGhmZkAjMEFAAzcgpP6fsRpnPwgYAC4AGiRxAgUCagACij92I/4NwBAgQ+ElAAfATb5bG+H12SuDmHAuBm7rYmsEVAAbAlyYF7+AE3MDQjE5ghoACYkVN4St+PMJ2DDwQUAA8QPYIAgTIBBUAZvRf7AecOECDwkYAC4CPYLo/1/eiSxM05FAA3c7c1gS0CCoAtSQ7cww+4gaEZmcAMAQXAjJzCU/p+hOkcfCCgAHiA6BEECJQJKADK6L3YDzh3gACBjwQUAB/Bdnms70eXJG7OoQC4mbutCWwRUABsSXLgHn7ADQzNyARmCCgAZuQUntL3I0zn4AMBBcADRI8gQKBMQAFQRu/FfsC5AwQIfCSgAPgItstjfT+6JHFzDgXAzdxtTWCLgAJgS5ID9/ADbmBoRiYwQ0ABMCOn8JS+H2E6Bx8IKAAeIHoEAQJlAgqAMnov9gPOHSBA4COBf/f379//9aNne2wDgX/++ed///Pnz79tMIoRDgooAA6GbmUCiwQUAIvCnLaKAmBaYuYlMEZAATAmqtig//zzz//258+f/zF22ikCOQEFQM7PaQIEagUUALX+p9+uADgdf/Xy/+efP3/+5z9//vwff/78+a+qh/H+pwL/z58/f/77P3/+/Ld//vz5v58+2cM6CPzz58+ff/37f/jz589/3WEgM9wTUADcy9zGBDYJKAA2pTlsFwXAsMB2jfuf/vz589/8/fv3/9q1lm3+JfDPP//86x///59orBf4VxHwd/2WFmwnoABoF4mBCBD4QUAB8AOWP30roAB46+lpPwn863/5/+/+/v37r//0r2UC//zzz//y58+ff7dsLesQINBEQAHQJAhjECAQElAAhNgceiGgAHih6BlBAQVAEG7CMQXAhJTMSGCugAJgbnYmJ0Dgzx8FgFtQJqAAKKP34v/8//33TwAsvQkKgKXBWotAEwEFQJMgjEGAQEhAARBic+iFgALghaJnBAUUAEG4CccUABNSMiOBuQIKgLnZmZwAAf8EgDtQKKAAKMT3agXA4jugAFgcrtUINBBQADQIwQgECIQF/BMAYToHswIKgKyg8wkBBUACr/tRBUD3hMxHYLaAAmB2fqYncF1AAXD9BhTurwAoxPdqBcDiO6AAWByu1Qg0EFAANAjBCAQIhAUUAGE6B7MCCoCsoPMJAQVAAq/7UQVA94TMR2C2gAJgdn6mJ3BdQAFw/QYU7q8AKMT3agXA4jugAFgcrtUINBBQADQIwQgECIQFFABhOgezAgqArKDzCQEFQAKv+1EFQPeEzEdgtoACYHZ+pidwXUABcP0GFO6vACjE92oFwOI7oABYHK7VCDQQUAA0CMEIBAiEBRQAYToHswIKgKyg8wkBBUACr/tRBUD3hMxHYLaAAmB2fqYncF1AAXD9BhTurwAoxPdqBcDiO6AAWByu1Qg0EFAANAjBCAQIhAUUAGE6B7MCCoCsoPMJAQVAAq/7UQVA94TMR2C2gAJgdn6mJ3BdQAFw/QYU7q8AKMT3agXA4jugAFgcrtUINBBQADQIwQgECIQFFABhOgezAgqArKDzCQEFQAKv+1EFQPeEzEdgtoACYHZ+pidwXUABcP0GFO6vACjE92oFwOI7oABYHK7VCDQQUAA0CMEIBAiEBRQAYToHswIKgKyg8wkBBUACr/tRBUD3hMxHYLaAAmB2fqYncF1AAXD9BhTurwAoxPdqBcDiO6AAWByu1Qg0EFAANAjBCAQIhAUUAGE6B7MCCoCsoPMJAQVAAq/7UQVA94TMR2C2gAJgdn6mJ3BdQAFw/QYU7q8AKMT3agXA4jugAFgcrtUINBBQADQIwQgECIQFFABhOgezAgqArKDzCQEFQAKv+1EFQPeEzEdgtoACYHZ+pidwXUABcP0GFO6vACjE92oFwOI7oABYHK7VCDQQUN+/u4YAACAASURBVAA0CMEIBAiEBRQAYToHswIKgKyg8wkBBUACr/tRBUD3hMxHYLaAAmB2fqYncF1AAXD9BhTurwAoxPdqBcDiO6AAWByu1Qg0EFAANAjBCAQIhAUUAGE6B7MCCoCsoPMJAQVAAq/7UQVA94TMR2C2gAJgdn6mJ3BdQAFw/QYU7q8AKMT3agXA4jugAFgcrtUINBBQADQIwQgECIQFFABhOgezAgqArKDzCQEFQAKv+1EFQPeEzEdgtoACYHZ+pidwXUABcP0GFO6vACjE92oFwOI7oABYHK7VCDQQUAA0CMEIBAiEBRQAYToHswIKgKyg8wkBBUACr/tRBUD3hMxHYLaAAmB2fqYncF1AAXD9BhTurwAoxPdqBcDiO6AAWByu1Qg0EFAANAjBCAQIhAUUAGE6B7MCCoCsoPMJAQVAAq/7UQVA94TMR2C2gAJgdn6mJ3BdQAFw/QYU7q8AKMT3agXA4jugAFgcrtUINBBQADQIwQgECIQFFABhOgezAgqArKDzCQEFQAKv+1EFQPeEzEdgtoACYHZ+pidwXUABcP0GFO6vACjE92oFwOI7oABYHK7VCDQQUAA0CMEIBAiEBRQAYToHswIKgKyg8wkBBUACr/tRBUD3hMxHYLaAAmB2fqYncF1AAXD9BhTurwAoxPdqBcDiO6AAWByu1Qg0EFAANAjBCAQIhAUUAGE6B7MCCoCsoPMJAQVAAq/7UQVA94TMR2C2gAJgdn6mJ3BdQAFw/QYU7q8AKMT3agXA4jugAFgcrtUINBBQADQIwQgECIQFFABhOgezAgqArKDzCQEFQAKv+1EFQPeEzEdgtoACYHZ+pidwXUABcP0GFO6vACjE92oFwOI7oABYHK7VCDQQUAA0CMEIBAiEBRQAYToHswIKgKyg8wkBBUACr/tRBUD3hMxHYLaAAmB2fqYncF1AAXD9BhTurwAoxPdqBcDiO6AAWByu1Qg0EFAANAjBCAQIhAUUAGE6B7MCCoCsoPMJAQVAAq/7UQVA94TMR2C2gAJgdn6mJ3BdQAFw/QYU7q8AKMT3agXA4jugAFgcrtUINBBQADQIwQgECIQFFABhOgezAgqArKDzCQEFQAKv+1EFQPeEzEdgtoACYHZ+pidwXUABcP0GFO6vACjE92oFwOI7oABYHK7VCDQQUAA0CMEIBAiEBRQAYToHswIKgKyg8wkBBUACr/tRBUD3hMxHYLaAAmB2fqYncF1AAXD9BhTurwAoxPdqBcDiO6AAWByu1Qg0EFAANAjBCAQIhAUUAGE6B7MCCoCsoPMJAQVAAq/7UQVA94TMR2C2gAJgdn6mJ3BdQAFw/QYU7q8AKMT3agXA4jugAFgcrtUINBBQADQIwQgECIQFFABhOgezAgqArKDzCQEFQAKv+1EFQPeEzEdgtoACYHZ+pidwXUABcP0GFO6vACjE92oFwOI7oABYHK7VCDQQUAA0CMEIBAiEBRQAYToHswIKgKyg8wkBBUACr/tRBUD3hMxHYLaAAmB2fqYncF1AAXD9BhTurwAoxPdqBcDiO6AAWByu1Qg0EFAANAjBCAQIhAUUAGE6B7MCCoCsoPMJAQVAAq/7UQVA94TMR2C2gAJgdn6mJ3BdQAFw/QYU7q8AKMT3agXA4jugAFgcrtUINBBQADQIwQgECIQFFABhOgezAgqArKDzCQEFQAKv+1EFQPeEzEdgtoACYHZ+pidwXUABcP0GFO6vACjE92oFwOI7oABYHK7VCDQQUAA0CMEIBAiEBRQAYToHswIKgKyg8wkBBUACr/tRBUD3hMxHYLaAAmB2fqYncF1AAXD9BhTurwAoxPdqBcDiO6AAWByu1Qg0EFAANAjBCAQIhAUUAGE6B7MCCoCsoPMJAQVAAq/7UQVA94TMR2C2gAJgdn6mJ3BdQAFw/QYU7q8AKMT3agXA4jugAFgcrtUINBBQADQIwQgECIQFFABhOgezAgqArKDzCQEFQAKv+1EFQPeEzEdgtoACYHZ+pidwXUABcP0GFO6vACjE92oFwOI7oABYHK7VCDQQUAA0CMEIBAiEBRQAYToHswIKgKyg8wkBBUACr/tRBUD3hMxHYLaAAmB2fqYncF1AAXD9BhTurwAoxPdqBcDiO6AAWByu1Qg0EFAANAjBCAQIhAUUAGE6B7MCCoCsoPMJAQVAAq/7UQVA94TMR2C2gAJgdn6mJ3BdQAFw/QYU7q8AKMT3agXA4jugAFgcrtUINBBQADQIwQgECIQFFABhOgezAgqArKDzCQEFQAKv+1EFQPeEzEdgtoACYHZ+pidwXUABcP0GFO6vACjE92oFwOI7oABYHK7VCDQQUAA0CMEIBAiEBRQAYToHswIKgKyg8wkBBUACr/tRBUD3hMxHYLaAAmB2fqYncF1AAXD9BhTurwAoxPdqBcDiO6AAWByu1Qg0EFAANAjBCAQIhAUUAGE6B7MCCoCsoPMJAQVAAq/7UQVA94TMR2C2gAJgdn6mJ3BdQAFw/QYU7q8AKMT3agXA4jugAFgcrtUINBBQADQIwQgECIQFFABhOgezAgqArKDzCQEFQAKv+1EFQPeEzEdgtoACYHZ+pidwXUABcP0GFO6vACjE92oFwOI7oABYHK7VCDQQUAA0CMEIBAiEBRQAYToHswIKgKyg8wkBBUACr/tRBUD3hMxHYLaAAmB2fqYncF1AAXD9BhTurwAoxPdqBcDiO6AAWByu1Qg0EFAANAjBCAQIhAUUAGE6B7MCCoCsoPMJAQVAAq/7UQVA94TMR2C2gAJgdn6mJ3BdQAFw/QYU7q8AKMT3agXA4jugAFgcrtUINBBQADQIwQgECIQFFABhOgezAgqArKDzCQEFQAKv+1EFQPeEzEdgtoACYHZ+pidwXUABcP0GFO6vACjE92oFwOI7oABYHK7VCDQQUAA0CMEIBAiEBRQAYToHswIKgKyg8wkBBUACr/tRBUD3hMxHYLaAAmB2fqYncF1AAXD9BhTurwAoxPdqBcDiO6AAWByu1Qg0EFAANAjBCAQIhAUUAGE6B7MCCoCsoPMJAQVAAq/7UQVA94TMR2C2gAJgdn6mJ3BdQAFw/QYU7q8AKMT3agXA4jugAFgcrtUINBBQADQIwQgECIQFFABhOgezAgqArKDzCQEFQAKv+1EFQPeEzEdgtoACYHZ+pidwXUABcP0GFO6vACjE92oFwOI7oABYHK7VCDQQUAA0CMEIBAiEBRQAYToHswIKgKyg8wkBBUACr/tRBUD3hMxHYLaAAmB2fqYncF1AAXD9BhTurwAoxPdqBcDiO6AAWByu1Qg0EFAANAjBCAQIhAUUAGE6B7MCCoCsoPMJAQVAAq/7UQVA94TMR2C2gAJgdn6mJ3BdQAFw/QYU7q8AKMT3agXA4jugAFgcrtUINBBQADQIwQgECIQFFABhOgezAgqArKDzCQEFQAKv+1EFQPeEzEdgtoACYHZ+pidwXUABcP0GFO6vACjE92oFwOI7oABYHK7VCDQQUAA0CMEIBAiEBRQAYToHswIKgKyg8wkBBUACr/tRBUD3hMxHYLaAAmB2fqYncF1AAXD9BhTurwAoxPdqBcDiO6AAWByu1Qg0EFAANAjBCAQIhAUUAGE6B7MCCoCsoPMJAQVAAq/7UQVA94TMR2C2gAJgdn6mJ3BdQAFw/QYU7q8AKMT3agXA4jugAFgcrtUINBBQADQIwQgECIQFFABhOgezAgqArKDzCQEFQAKv+1EFQPeEzEdgtoACYHZ+pidwXUABcP0GFO6vACjE92oFwOI7oABYHK7VCDQQUAA0CMEIBAiEBRQAYToHswIKgKyg8wkBBUACr/tRBUD3hMxHYLaAAmB2fqYncF1AAXD9BhTurwAoxPdqBcDiO6AAWByu1Qg0EFAANAjBCAQIhAUUAGE6B7MCCoCsoPMJAQVAAq/7UQVA94TMR2C2gAJgdn6mJ3BdQAFw/QYU7q8AKMT3agXA4jugAFgcrtUINBBQADQIwQgECIQFFABhOgezAgqArKDzCQEFQAKv+1EFQPeEzEdgtoACYHZ+pidwXUABcP0GFO6vACjE92oFwOI7oABYHK7VCDQQUAA0CMEIBAiEBRQAYToHswIKgKyg8wkBBUACr/tRBUD3hMxHYLaAAmB2fqYncF1AAXD9BhTurwAoxPdqBcDiO6AAWByu1Qg0EFAANAjBCAQIhAUUAGE6B7MCCoCsoPMJAQVAAq/7UQVA94TMR2C2gAJgdn6mJ3BdQAFw/QYU7q8AKMT3agXA4jugAFgcrtUINBBQADQIwQgECIQFFABhOgezAgqArKDzCQEFQAKv+1EFQPeEzEdgtoACYHZ+pidwXUABcP0GFO6vACjE92oFwOI7oABYHK7VCDQQUAA0CMEIBAiEBRQAYToHswIKgKyg8wkBBUACr/tRBUD3hMxHYLaAAmB2fqYncF1AAXD9BhTurwAoxPdqBcDiO6AAWByu1Qg0EFAANAjBCAQIhAUUAGE6B7MCCoCsoPMJAQVAAq/7UQVA94TMR2C2gAJgdn6mJ3BdQAFw/QYU7q8AKMT3agXA4jugAFgcrtUINBBQADQIwQgECIQFFABhOgezAgqArKDzCQEFQAKv+1EFQPeEzEdgtoACYHZ+pidwXUABcP0GFO6vACjE92oFwOI7oABYHK7VCDQQUAA0CMEIBAiEBRQAYToHswIKgKyg8wkBBUACr/tRBUD3hMxHYLaAAmB2fqYncF1AAXD9BhTurwAoxPdqBcDiO6AAWByu1Qg0EFAANAjBCAQIhAUUAGE6B7MCCoCsoPMJAQVAAq/7UQVA94TMR2C2gAJgdn6mJ3BdQAFw/QYU7q8AKMT3agXA4jugAFgcrtUINBBQADQIwQgECIQFFABhOgezAgqArKDzCQEFQAKv+1EFQPeEzEdgtoACYHZ+pidwXUABcP0GFO6vACjE92oFwOI7oABYHK7VCDQQUAA0CMEIBAiEBRQAYToHswIKgKyg8wkBBUACr/tRBUD3hMxHYLaAAmB2fqYncF1AAXD9BhTurwAoxPdqBcDiO6AAWByu1Qg0EFAANAjBCAQIhAUUAGE6B7MCCoCsoPMJAQVAAq/7UQVA94TMR2C2gAJgdn6mJ3BdQAFw/QYU7q8AKMT3agXA4jugAFgcrtUINBBQADQIwQgECIQFFABhOgezAgqArKDzCQEFQAKv+1EFQPeEzEdgtoACYHZ+pidwXUABcP0GFO6vACjE92oFwOI7oABYHK7VCDQQUAA0CMEIBAiEBRQAYToHswIKgKyg8wkBBUACr/tRBUD3hMxHYLaAAmB2fqYncF1AAXD9BhTurwAoxPdqBcDiO6AAWByu1Qg0EFAANAjBCAQIhAUUAGE6B7MCCoCsoPMJAQVAAq/7UQVA94TMR2C2gAJgdn6mJ3BdQAFw/QYU7q8AKMT3agXA4jugAFgcrtUINBBQADQIwQgECIQFFABhOgezAgqArKDzCQEFQAKv+1EFQPeEzEdgtoACYHZ+pidwXUABcP0GFO6vACjE92oFwOI7oABYHK7VCDQQUAA0CMEIBAiEBRQAYToHswIKgKyg8wkBBUACr/tRBUD3hMxHYLaAAmB2fqYncF1AAXD9BhTurwAoxPdqBcDiO6AAWByu1Qg0EFAANAjBCAQIhAUUAGE6B7MCCoCsoPMJAQVAAq/7UQVA94TMR2C2gAJgdn6mJ3BdQAFw/QYU7q8AKMT3agXA4jugAFgcrtUINBBQADQIwQgECIQFFABhOgezAgqArKDzCQEFQAKv+1EFQPeEzEdgtoACYHZ+pidwXUABcP0GFO6vACjE92oFwOI7oABYHK7VCDQQUAA0CMEIBAiEBRQAYToHswIKgKyg8wkBBUACr/tRBUD3hMxHYLaAAmB2fqYncF1AAXD9BhTurwAoxPdqBcDiO6AAWByu1Qg0EFAANAjBCAQIhAUUAGE6B7MCCoCsoPMJAQVAAq/7UQVA94TMR2C2gAJgdn6mJ3BdQAFw/QYU7q8AKMT3agXA4jugAFgcrtUINBBQADQIwQgECIQFFABhOgezAgqArKDzCQEFQAKv+1EFQPeEzEdgtoACYHZ+pidwXUABcP0GFO6vACjE92oFwOI7oABYHK7VCDQQUAA0CMEIBAiEBRQAYToHswIKgKyg8wkBBUACr/tRBUD3hMxHYLaAAmB2fqYncF1AAXD9BhTurwAoxPdqBcDiO6AAWByu1Qg0EFAANAjBCAQIhAUUAGE6B7MCCoCsoPMJAQVAAq/7UQVA94TMR2C2gAJgdn6mJ3BdQAFw/QYU7q8AKMT3agXA4jugAFgcrtUINBBQADQIwQgECIQFFABhOgezAgqArKDzCQEFQAKv+1EFQPeEzEdgtoACYHZ+pidwXUABcP0GFO6vACjE92oFwOI7oABYHK7VCDQQUAA0CMEIBAiEBRQAYToHswIKgKyg8wkBBUACr/tRBUD3hMxHYLaAAmB2fqYncF1AAXD9BhTurwAoxPdqBcDiO6AAWByu1Qg0EFAANAjBCAQIhAUUAGE6B7MCCoCsoPMJAQVAAq/7UQVA94TMR2C2gAJgdn6mJ3BdQAFw/QYU7q8AKMT3agXA4jugAFgcrtUINBBQADQIwQgECIQFFABhOgezAgqArKDzCQEFQAKv+1EFQPeEzEdgtoACYHZ+pidwXUABcP0GFO6vACjE92oFwOI7oABYHK7VCDQQUAA0CMEIBAiEBRQAYToHswIKgKyg8wkBBUACr/tRBUD3hMxHYLaAAmB2fqYncF1AAXD9BhTurwAoxPdqBcDiO6AAWByu1Qg0EFAANAjBCAQIhAUUAGE6B7MCCoCsoPMJAQVAAq/7UQVA94TMR2C2gAJgdn6mJ3BdQAFw/QYU7q8AKMT3agXA4jugAFgcrtUINBBQADQIwQgECIQFFABhOgezAgqArKDzCQEFQAKv+1EFQPeEzEdgtoACYHZ+pidwXUABcP0GFO6vACjE92oFwOI7oABYHK7VCDQQUAA0CMEIBAiEBRQAYToHswIKgKyg8wkBBUACr/tRBUD3hMxHYLaAAmB2fqYncF1AAXD9BhTurwAoxPdqBcDiO6AAWByu1Qg0EFAANAjBCAQIhAUUAGE6B7MCCoCsoPMJAQVAAq/7UQVA94TMR2C2gAJgdn6mJ3BdQAFw/QYU7q8AKMT3agXA4jugAFgcrtUINBBQADQIwQgECIQFFABhOgezAgqArKDzCQEFQAKv+1EFQPeEzEdgtoACYHZ+pidwXUABcP0GFO6vACjE92oFwOI7oABYHK7VCDQQUAA0CMEIBAiEBRQAYToHswIKgKyg8wkBBUACr/tRBUD3hMxHYLaAAmB2fqYncF1AAXD9BhTurwAoxPdqBcDiO6AAWByu1Qg0EFAANAjBCAQIhAUUAGE6B7MCCoCsoPMJAQVAAq/7UQVA94TMR2C2gAJgdn6mJ3BdQAFw/QYU7q8AKMT3agXA4jugAFgcrtUINBBQADQIwQgECIQFFABhOgezAgqArKDzCQEFQAKv+1EFQPeEzEdgtoACYHZ+pidwXUABcP0GFO6vACjE92oFwOI7oABYHK7VCDQQUAA0CMEIBAiEBRQAYToHswIKgKyg8wkBBUACr/tRBUD3hMxHYLaAAmB2fqYncF1AAXD9BhTurwAoxPdqBcDiO6AAWByu1Qg0EFAANAjBCAQIhAUUAGE6B7MCCoCsoPMJAQVAAq/7UQVA94TMR2C2gAJgdn6mJ3BdQAFw/QYU7q8AKMT3agXA4jugAFgcrtUINBBQADQIwQgECIQFFABhOgezAgqArKDzCQEFQAKv+1EFQPeEzEdgtoACYHZ+pidwXUABcP0GFO6vACjE92oFwOI7oABYHK7VCDQQUAA0CMEIBAiEBRQAYToHswIKgKyg8wkBBUACr/tRBUD3hMxHYLaAAmB2fqYncF1AAXD9BhTurwAoxPdqBcDiO6AAWByu1Qg0EFAANAjBCAQIhAUUAGE6B7MCCoCsoPMJAQVAAq/7UQVA94TMR2C2gAJgdn6mJ3BdQAFw/QYU7q8AKMT3agXA4jugAFgcrtUINBBQADQIwQgECIQFFABhOgezAgqArKDzCQEFQAKv+1EFQPeEzEdgtoACYHZ+pidwXUABcP0GFO6vACjE92oFwOI7oABYHK7VCDQQUAA0CMEIBAiEBRQAYToHswIKgKyg8wkBBUACr/tRBUD3hMxHYLaAAmB2fqYncF1AAXD9BhTurwAoxPdqBcDiO6AAWByu1Qg0EFAANAjBCAQIhAUUAGE6B7MCCoCsoPMJAQVAAq/7UQVA94TMR2C2gAJgdn6mJ3BdQAFw/QYU7q8AKMT3agXA4jugAFgcrtUINBBQADQIwQgECIQFFABhOgezAgqArKDzCQEFQAKv+1EFQPeEzEdgtoACYHZ+pidwXUABcP0GFO6vACjE92oFwOI7oABYHK7VCDQQUAA0CMEIBAiEBRQAYToHswIKgKyg8wkBBUACr/tRBUD3hMxHYLaAAmB2fqYncF1AAXD9BhTurwAoxPdqBcDiO6AAWByu1Qg0EFAANAjBCAQIhAUUAGE6B7MCCoCsoPMJAQVAAq/7UQVA94TMR2C2gAJgdn6mJ3BdQAFw/QYU7q8AKMT3agXA4jugAFgcrtUINBBQADQIwQgECIQFFABhOgezAgqArKDzCQEFQAKv+1EFQPeEzEdgtoACYHZ+pidwXUABcP0GFO6vACjE92oFwOI7oABYHK7VCDQQUAA0CMEIBAiEBRQAYToHswIKgKyg8wkBBUACr/tRBUD3hMxHYLaAAmB2fqYncF1AAXD9BhTurwAoxPdqBcDiO6AAWByu1Qg0EFAANAjBCAQIhAUUAGE6B7MCCoCsoPMJAQVAAq/7UQVA94TMR2C2gAJgdn6mJ3BdQAFw/QYU7q8AKMT3agXA4jugAFgcrtUINBBQADQIwQgECIQFFABhOgezAgqArKDzCQEFQAKv+1EFQPeEzEdgtoACYHZ+pidwXUABcP0GFO6vACjE92oFwOI7oABYHK7VCDQQUAA0CMEIBAiEBRQAYToHswIKgKyg8wkBBUACr/tRBUD3hMxHYLaAAmB2fqYncF1AAXD9BhTurwAoxPdqBcDiO6AAWByu1Qg0EFAANAjBCAQIhAUUAGE6B7MCCoCsoPMJAQVAAq/7UQVA94TMR2C2gAJgdn6mJ3BdQAFw/QYU7q8AKMT3agXA4jugAFgcrtUINBBQADQIwQgECIQFFABhOgezAgqArKDzCQEFQAKv+1EFQPeEzEdgtoACYHZ+pidwXUABcP0GFO6vACjE92oFwOI7oABYHK7VCDQQUAA0CMEIBAiEBRQAYToHswIKgKyg8wkBBUACr/tRBUD3hMxHYLaAAmB2fqYncF1AAXD9BhTurwAoxPdqBcDiO6AAWByu1Qg0EFAANAjBCAQIhAUUAGE6B7MCCoCsoPMJAQVAAq/7UQVA94TMR2C2gAJgdn6mJ3BdQAFw/QYU7q8AKMT3agXA4jugAFgcrtUINBBQADQIwQgECIQFFABhOgezAgqArKDzCQEFQAKv+1EFQPeEzEdgtoACYHZ+pidwXUABcP0GFO6vACjE92oFwOI7oABYHK7VCDQQUAA0CMEIBAiEBRQAYToHswIKgKyg8wkBBUACr/tRBUD3hMxHYLaAAmB2fqYncF1AAXD9BhTurwAoxPdqBcDiO6AAWByu1Qg0EFAANAjBCAQIhAUUAGE6B7MCCoCsoPMJAQVAAq/7UQVA94TMR2C2gAJgdn6mJ3BdQAFw/QYU7q8AKMT3agXA4jugAFgcrtUINBBQADQIwQgECIQFFABhOgezAgqArKDzCQEFQAKv+1EFQPeEzEdgtoACYHZ+pidwXUABcP0GFO6vACjE92oFwOI7oABYHK7VCDQQUAA0CMEIBAiEBRQAYToHswIKgKyg8wkBBUACr/tRBUD3hMxHYLaAAmB2fqYncF1AAXD9BhTurwAoxPdqBcDiO6AAWByu1Qg0EFAANAjBCAQIhAUUAGE6B7MCCoCsoPMJAQVAAq/7UQVA94TMR2C2gAJgdn6mJ3BdQAFw/QYU7q8AKMT3agXA4jugAFgcrtUINBBQADQIwQgECIQFFABhOgezAgqArKDzCQEFQAKv+1EFQPeEzEdgtoACYHZ+pidwXUABcP0GFO6vACjE92oFwOI7oABYHK7VCDQQUAA0CMEIBAiEBRQAYToHswIKgKyg8wkBBUACr/tRBUD3hMxHYLaAAmB2fqYncF1AAXD9BhTurwAoxPdqBcDiO6AAWByu1Qg0EFAANAjBCAQIhAUUAGE6B7MCCoCsoPMJAQVAAq/7UQVA94TMR2C2gAJgdn6mJ3BdQAFw/QYU7q8AKMT3agXA4jugAFgcrtUINBBQADQIwQgECIQFFABhOgezAgqArKDzCQEFQAKv+1EFQPeEzEdgtoACYHZ+pidwXUABcP0GFO6vACjE92oFwOI7oABYHK7VCDQQUAA0CMEIBAiEBRQAYToHswIKgKyg8wkBBUACr/tRBUD3hMxHYLaAAmB2fqYncF1AAXD9BhTurwAoxPdqBcDiO6AAWByu1Qg0EFAANAjBCAQIhAUUAGE6B7MCCoCsoPMJAQVAAq/7UQVA94TMR2C2gAJgdn6mJ3BdQAFw/QYU7q8AKMT3agXA4jugAFgcrtUINBBQADQIwQgECIQFFABhOgezAgqArKDzCQEFQAKv+1EFQPeEzEdgtoACYHZ+pidwXUABcP0GFO6vACjE92oFwOI7oABYHK7VCDQQUAA0CMEIBAiEBRQAYToHswIKgKyg8wkBBUACr/tRBUD3hMxHYLaAAmB2fqYncF1AAXD9BhTurwAoxPdqBcDiO6AAWByu1Qg0EFAANAjBCAQIhAUUAGE6B7MCy6FDogAAGFRJREFUCoCsoPMJAQVAAq/7UQVA94TMR2C2gAJgdn6mJ3BdQAFw/QYU7q8AKMT3agXA4jugAFgcrtUINBBQADQIwQgECIQFFABhOgezAgqArKDzCQEFQAKv+1EFQPeEzEdgtoACYHZ+pidwXUABcP0GFO6vACjE92oFwOI7oABYHK7VCDQQUAA0CMEIBAiEBRQAYToHswIKgKyg8wkBBUACr/tRBUD3hMxHYLaAAmB2fqYncF1AAXD9BhTurwAoxPdqBcDiO6AAWByu1Qg0EFAANAjBCAQIhAUUAGE6B7MCCoCsoPMJAQVAAq/7UQVA94TMR2C2gAJgdn6mJ3BdQAFw/QYU7q8AKMT3agXA4jugAFgcrtUINBBQADQIwQgECIQFFABhOgezAgqArKDzCQEFQAKv+1EFQPeEzEdgtoACYHZ+pidwXUABcP0GFO6vACjE92oFwOI7oABYHK7VCDQQUAA0CMEIBAiEBRQAYToHswIKgKyg8wkBBUACr/tRBUD3hMxHYLaAAmB2fqYncF1AAXD9BhTurwAoxPdqBcDiO6AAWByu1Qg0EFAANAjBCAQIhAUUAGE6B7MCCoCsoPMJAQVAAq/7UQVA94TMR2C2gAJgdn6mJ3BdQAFw/QYU7q8AKMT3agXA4jugAFgcrtUINBBQADQIwQgECIQFFABhOgezAgqArKDzCQEFQAKv+1EFQPeEzEdgtoACYHZ+pidwXUABcP0GFO6vACjE92oFwOI7oABYHK7VCDQQUAA0CMEIBAiEBRQAYToHswIKgKyg8wkBBUACr/tRBUD3hMxHYLaAAmB2fqYncF1AAXD9BhTurwAoxPdqBcDiO6AAWByu1Qg0EFAANAjBCAQIhAUUAGE6B7MCCoCsoPMJAQVAAq/7UQVA94TMR2C2gAJgdn6mJ3BdQAFw/QYU7q8AKMT3agXA4jugAFgcrtUINBBQADQIwQgECIQFFABhOgezAgqArKDzCQEFQAKv+1EFQPeEzEdgtoACYHZ+pidwXUABcP0GFO6vACjE92oFwOI7oABYHK7VCDQQUAA0CMEIBAiEBRQAYToHswIKgKyg8wkBBUACr/tRBUD3hMxHYLaAAmB2fqYncF1AAXD9BhTurwAoxPdqBcDiO6AAWByu1Qg0EFAANAjBCAQIhAUUAGE6B7MCCoCsoPMJAQVAAq/7UQVA94TMR2C2gAJgdn6mJ3BdQAFw/QYU7q8AKMT3agXA4jugAFgcrtUINBBQADQIwQgECIQFFABhOgezAgqArKDzCQEFQAKv+1EFQPeEzEdgtoACYHZ+pidwXUABcP0GFO6vACjE92oFwOI7oABYHK7VCDQQUAA0CMEIBAiEBRQAYToHswIKgKyg8wkBBUACr/tRBUD3hMxHYLaAAmB2fqYncF1AAXD9BhTurwAoxPdqBcDiO6AAWByu1Qg0EFAANAjBCAQIhAUUAGE6B7MCCoCsoPMJAQVAAq/7UQVA94TMR2C2gAJgdn6mJ3BdQAFw/QYU7q8AKMT3agXA4jugAFgcrtUINBD4vABosKMRCBAgQIAAAQIECBAgQIAAgR8F/v749/6cAAECBAgQIECAAAECBAgQGCigABgYmpEJECBAgAABAgQIECBAgMCvAgqAX8X8PQECBAgQIECAAAECBAgQGCigABgYmpEJECBAgAABAgQIECBAgMCvAgqAX8X8PQECBAgQIECAAAECBAgQGCigABgYmpEJECBAgAABAgQIECBAgMCvAgqAX8X8PQECBAgQIECAAAECBAgQGCigABgYmpEJECBAgAABAgQIECBAgMCvAgqAX8X8PQECBAgQIECAAAECBAgQGCigABgYmpEJECBAgAABAgQIECBAgMCvAgqAX8X8PQECBAgQIECAAAECBAgQGCigABgYmpEJECBAgAABAgQIECBAgMCvAgqAX8X8PQECBAgQIECAAAECBAgQGCigABgYmpEJECBAgAABAgQIECBAgMCvAgqAX8X8PQECBAgQIECAAAECBAgQGCigABgYmpEJECBAgAABAgQIECBAgMCvAgqAX8X8PQECBAgQIECAAAECBAgQGCigABgYmpEJECBAgAABAgQIECBAgMCvAgqAX8X8PQECBAgQIECAAAECBAgQGCigABgYmpEJECBAgAABAgQIECBAgMCvAgqAX8X8PQECBAgQIECAAAECBAgQGCigABgYmpEJECBAgAABAgQIECBAgMCvAgqAX8X8PQECBAgQIECAAAECBAgQGCigABgYmpEJECBAgAABAgQIECBAgMCvAgqAX8X8PQECBAgQIECAAAECBAgQGCigABgYmpEJECBAgAABAgQIECBAgMCvAgqAX8X8PQECBAgQIECAAAECBAgQGCigABgYmpEJECBAgAABAgQIECBAgMCvAgqAX8X8PQECBAgQIECAAAECBAgQGCigABgYmpEJECBAgAABAgQIECBAgMCvAgqAX8X8PQECBAgQIECAAAECBAgQGCigABgYmpEJECBAgAABAgQIECBAgMCvAgqAX8X8PQECBAgQIECAAAECBAgQGCigABgYmpEJECBAgAABAgQIECBAgMCvAgqAX8X8PQECBAgQIECAAAECBAgQGCigABgYmpEJECBAgAABAgQIECBAgMCvAgqAX8X8PQECBAgQIECAAAECBAgQGCigABgYmpEJECBAgAABAgQIECBAgMCvAgqAX8X8PQECBAgQIECAAAECBAgQGCigABgYmpEJECBAgAABAgQIECBAgMCvAgqAX8X8PQECBAgQIECAAAECBAgQGCigABgYmpEJECBAgAABAgQIECBAgMCvAgqAX8X8PQECBAgQIECAAAECBAgQGCigABgYmpEJECBAgAABAgQIECBAgMCvAgqAX8X8PQECBAgQIECAAAECBAgQGCigABgYmpEJECBAgAABAgQIECBAgMCvAgqAX8X8PQECBAgQIECAAAECBAgQGCigABgYmpEJECBAgAABAgQIECBAgMCvAgqAX8X8PQECBAgQIECAAAECBAgQGCigABgYmpEJECBAgAABAgQIECBAgMCvAgqAX8X8PQECBAgQIECAAAECBAgQGCigABgYmpEJECBAgAABAgQIECBAgMCvAgqAX8X8PQECBAgQIECAAAECBAgQGCigABgYmpEJECBAgAABAgQIECBAgMCvAgqAX8X8PQECBAgQIECAAAECBAgQGCigABgYmpEJECBAgAABAgQIECBAgMCvAgqAX8X8PQECBAgQIECAAAECBAgQGCigABgYmpEJECBAgAABAgQIECBAgMCvAgqAX8X8PQECBAgQIECAAAECBAgQGCigABgYmpEJECBAgAABAgQIECBAgMCvAgqAX8X8PQECBAgQIECAAAECBAgQGCigABgYmpEJECBAgAABAgQIECBAgMCvAgqAX8X8PQECBAgQIECAAAECBAgQGCigABgYmpEJECBAgAABAgQIECBAgMCvAgqAX8X8PQECBAgQIECAAAECBAgQGCigABgYmpEJECBAgAABAgQIECBAgMCvAgqAX8X8PQECBAgQIECAAAECBAgQGCigABgYmpEJECBAgAABAgQIECBAgMCvAgqAX8X8PQECBAgQIECAAAECBAgQGCigABgYmpEJECBAgAABAgQIECBAgMCvAgqAX8X8PQECBAgQIECAAAECBAgQGCigABgYmpEJECBAgAABAgQIECBAgMCvAgqAX8X8PQECBAgQIECAAAECBAgQGCigABgYmpEJECBAgAABAgQIECBAgMCvAgqAX8X8PQECBAgQIECAAAECBAgQGCigABgYmpEJECBAgAABAgQIECBAgMCvAgqAX8X8PQECBAgQIECAAAECBAgQGCigABgYmpEJECBAgAABAgQIECBAgMCvAgqAX8X+33bs0AYAAABh2P9fcwNyST2CFIc8AQIECBAgQIAAAQIECBAICjgAgqOpTIAAAQIECBAgQIAAAQIEXgEHwCsmT4AAAQIECBAgQIAAAQIEggIOgOBoKhMgQIAAAQIECBAgQIAAgVfAAfCKyRMgQIAAAQIECBAgQIAAgaCAAyA4msoECBAgQIAAAQIECBAgQOAVcAC8YvIECBAgQIAAAQIECBAgQCAo4AAIjqYyAQIECBAgQIAAAQIECBB4BRwAr5g8AQIECBAgQIAAAQIECBAICjgAgqOpTIAAAQIECBAgQIAAAQIEXgEHwCsmT4AAAQIECBAgQIAAAQIEggIOgOBoKhMgQIAAAQIECBAgQIAAgVfAAfCKyRMgQIAAAQIECBAgQIAAgaCAAyA4msoECBAgQIAAAQIECBAgQOAVcAC8YvIECBAgQIAAAQIECBAgQCAo4AAIjqYyAQIECBAgQIAAAQIECBB4BRwAr5g8AQIECBAgQIAAAQIECBAICjgAgqOpTIAAAQIECBAgQIAAAQIEXgEHwCsmT4AAAQIECBAgQIAAAQIEggIOgOBoKhMgQIAAAQIECBAgQIAAgVfAAfCKyRMgQIAAAQIECBAgQIAAgaCAAyA4msoECBAgQIAAAQIECBAgQOAVcAC8YvIECBAgQIAAAQIECBAgQCAo4AAIjqYyAQIECBAgQIAAAQIECBB4BRwAr5g8AQIECBAgQIAAAQIECBAICjgAgqOpTIAAAQIECBAgQIAAAQIEXgEHwCsmT4AAAQIECBAgQIAAAQIEggIOgOBoKhMgQIAAAQIECBAgQIAAgVfAAfCKyRMgQIAAAQIECBAgQIAAgaCAAyA4msoECBAgQIAAAQIECBAgQOAVcAC8YvIECBAgQIAAAQIECBAgQCAo4AAIjqYyAQIECBAgQIAAAQIECBB4BRwAr5g8AQIECBAgQIAAAQIECBAICjgAgqOpTIAAAQIECBAgQIAAAQIEXgEHwCsmT4AAAQIECBAgQIAAAQIEggIOgOBoKhMgQIAAAQIECBAgQIAAgVfAAfCKyRMgQIAAAQIECBAgQIAAgaCAAyA4msoECBAgQIAAAQIECBAgQOAVcAC8YvIECBAgQIAAAQIECBAgQCAo4AAIjqYyAQIECBAgQIAAAQIECBB4BRwAr5g8AQIECBAgQIAAAQIECBAICjgAgqOpTIAAAQIECBAgQIAAAQIEXgEHwCsmT4AAAQIECBAgQIAAAQIEggIOgOBoKhMgQIAAAQIECBAgQIAAgVfAAfCKyRMgQIAAAQIECBAgQIAAgaCAAyA4msoECBAgQIAAAQIECBAgQOAVcAC8YvIECBAgQIAAAQIECBAgQCAo4AAIjqYyAQIECBAgQIAAAQIECBB4BRwAr5g8AQIECBAgQIAAAQIECBAICjgAgqOpTIAAAQIECBAgQIAAAQIEXgEHwCsmT4AAAQIECBAgQIAAAQIEggIOgOBoKhMgQIAAAQIECBAgQIAAgVfAAfCKyRMgQIAAAQIECBAgQIAAgaCAAyA4msoECBAgQIAAAQIECBAgQOAVcAC8YvIECBAgQIAAAQIECBAgQCAo4AAIjqYyAQIECBAgQIAAAQIECBB4BRwAr5g8AQIECBAgQIAAAQIECBAICjgAgqOpTIAAAQIECBAgQIAAAQIEXgEHwCsmT4AAAQIECBAgQIAAAQIEggIOgOBoKhMgQIAAAQIECBAgQIAAgVfAAfCKyRMgQIAAAQIECBAgQIAAgaCAAyA4msoECBAgQIAAAQIECBAgQOAVcAC8YvIECBAgQIAAAQIECBAgQCAo4AAIjqYyAQIECBAgQIAAAQIECBB4BRwAr5g8AQIECBAgQIAAAQIECBAICjgAgqOpTIAAAQIECBAgQIAAAQIEXgEHwCsmT4AAAQIECBAgQIAAAQIEggIOgOBoKhMgQIAAAQIECBAgQIAAgVfAAfCKyRMgQIAAAQIECBAgQIAAgaCAAyA4msoECBAgQIAAAQIECBAgQOAVcAC8YvIECBAgQIAAAQIECBAgQCAo4AAIjqYyAQIECBAgQIAAAQIECBB4BRwAr5g8AQIECBAgQIAAAQIECBAICjgAgqOpTIAAAQIECBAgQIAAAQIEXgEHwCsmT4AAAQIECBAgQIAAAQIEggIOgOBoKhMgQIAAAQIECBAgQIAAgVfAAfCKyRMgQIAAAQIECBAgQIAAgaCAAyA4msoECBAgQIAAAQIECBAgQOAVcAC8YvIECBAgQIAAAQIECBAgQCAo4AAIjqYyAQIECBAgQIAAAQIECBB4BRwAr5g8AQIECBAgQIAAAQIECBAICjgAgqOpTIAAAQIECBAgQIAAAQIEXgEHwCsmT4AAAQIECBAgQIAAAQIEggIOgOBoKhMgQIAAAQIECBAgQIAAgVfAAfCKyRMgQIAAAQIECBAgQIAAgaCAAyA4msoECBAgQIAAAQIECBAgQOAVcAC8YvIECBAgQIAAAQIECBAgQCAo4AAIjqYyAQIECBAgQIAAAQIECBB4BRwAr5g8AQIECBAgQIAAAQIECBAICjgAgqOpTIAAAQIECBAgQIAAAQIEXgEHwCsmT4AAAQIECBAgQIAAAQIEggIOgOBoKhMgQIAAAQIECBAgQIAAgVfAAfCKyRMgQIAAAQIECBAgQIAAgaCAAyA4msoECBAgQIAAAQIECBAgQOAVcAC8YvIECBAgQIAAAQIECBAgQCAo4AAIjqYyAQIECBAgQIAAAQIECBB4BRwAr5g8AQIECBAgQIAAAQIECBAICjgAgqOpTIAAAQIECBAgQIAAAQIEXgEHwCsmT4AAAQIECBAgQIAAAQIEggIOgOBoKhMgQIAAAQIECBAgQIAAgVfAAfCKyRMgQIAAAQIECBAgQIAAgaCAAyA4msoECBAgQIAAAQIECBAgQOAVcAC8YvIECBAgQIAAAQIECBAgQCAo4AAIjqYyAQIECBAgQIAAAQIECBB4BRwAr5g8AQIECBAgQIAAAQIECBAICjgAgqOpTIAAAQIECBAgQIAAAQIEXgEHwCsmT4AAAQIECBAgQIAAAQIEggIOgOBoKhMgQIAAAQIECBAgQIAAgVfAAfCKyRMgQIAAAQIECBAgQIAAgaCAAyA4msoECBAgQIAAAQIECBAgQOAVcAC8YvIECBAgQIAAAQIECBAgQCAo4AAIjqYyAQIECBAgQIAAAQIECBB4BRwAr5g8AQIECBAgQIAAAQIECBAICjgAgqOpTIAAAQIECBAgQIAAAQIEXgEHwCsmT4AAAQIECBAgQIAAAQIEggIOgOBoKhMgQIAAAQIECBAgQIAAgVfAAfCKyRMgQIAAAQIECBAgQIAAgaCAAyA4msoECBAgQIAAAQIECBAgQOAVcAC8YvIECBAgQIAAAQIECBAgQCAo4AAIjqYyAQIECBAgQIAAAQIECBB4BRwAr5g8AQIECBAgQIAAAQIECBAICjgAgqOpTIAAAQIECBAgQIAAAQIEXgEHwCsmT4AAAQIECBAgQIAAAQIEggIOgOBoKhMgQIAAAQIECBAgQIAAgVfAAfCKyRMgQIAAAQIECBAgQIAAgaCAAyA4msoECBAgQIAAAQIECBAgQOAVcAC8YvIECBAgQIAAAQIECBAgQCAo4AAIjqYyAQIECBAgQIAAAQIECBB4BRwAr5g8AQIECBAgQIAAAQIECBAICjgAgqOpTIAAAQIECBAgQIAAAQIEXgEHwCsmT4AAAQIECBAgQIAAAQIEggIOgOBoKhMgQIAAAQIECBAgQIAAgVfAAfCKyRMgQIAAAQIECBAgQIAAgaCAAyA4msoECBAgQIAAAQIECBAgQOAVcAC8YvIECBAgQIAAAQIECBAgQCAo4AAIjqYyAQIECBAgQIAAAQIECBB4BRwAr5g8AQIECBAgQIAAAQIECBAICjgAgqOpTIAAAQIECBAgQIAAAQIEXgEHwCsmT4AAAQIECBAgQIAAAQIEggIOgOBoKhMgQIAAAQIECBAgQIAAgVfAAfCKyRMgQIAAAQIECBAgQIAAgaCAAyA4msoECBAgQIAAAQIECBAgQOAVcAC8YvIECBAgQIAAAQIECBAgQCAo4AAIjqYyAQIECBAgQIAAAQIECBB4BRwAr5g8AQIECBAgQIAAAQIECBAICjgAgqOpTIAAAQIECBAgQIAAAQIEXgEHwCsmT4AAAQIECBAgQIAAAQIEggIOgOBoKhMgQIAAAQIECBAgQIAAgVfAAfCKyRMgQIAAAQIECBAgQIAAgaCAAyA4msoECBAgQIAAAQIECBAgQOAVcAC8YvIECBAgQIAAAQIECBAgQCAo4AAIjqYyAQIECBAgQIAAAQIECBB4BRwAr5g8AQIECBAgQIAAAQIECBAICgzgosDSymMMTQAAAABJRU5ErkJggg==;" vertex="1" parent="1">
          <mxGeometry x="789.1400000000001" y="570.87" width="89.13" height="89.13" as="geometry" />
        </mxCell>
        <mxCell id="CHzbfjj1ZIRkGf9tCg_J-222" value="&lt;h2 style=&quot;font-size: 13px;&quot;&gt;Dedicated Server&lt;/h2&gt;" style="text;html=1;strokeColor=none;fillColor=none;align=center;verticalAlign=middle;whiteSpace=wrap;rounded=0;fontFamily=Comic Sans MS;fontColor=#000000;fontSize=13;fontStyle=1" vertex="1" parent="1">
          <mxGeometry x="736.7400000000001" y="650" width="193.91" height="30" as="geometry" />
        </mxCell>
      </root>
    </mxGraphModel>
  </diagram>
</mxfile>
